/* XPM */
static char * logwin_xpm[] = {
"60 48 522 2",
"  	c None",
". 	c #666699",
"+ 	c #676798",
"@ 	c #6F6F90",
"# 	c #7C7CAE",
"$ 	c #7D7DAE",
"% 	c #7E7EAE",
"& 	c #7F7FAF",
"* 	c #8181B0",
"= 	c #8282B1",
"- 	c #8383B1",
"; 	c #8484B1",
"> 	c #8585B2",
", 	c #8686B3",
"' 	c #8787B3",
") 	c #8888B4",
"! 	c #8989B4",
"~ 	c #8A8AB4",
"{ 	c #8B8BB5",
"] 	c #8D8DB6",
"^ 	c #8E8EB7",
"/ 	c #8F8FB7",
"( 	c #9090B7",
"_ 	c #8B8BA6",
": 	c #808080",
"< 	c #A1A1CF",
"[ 	c #A3A3D1",
"} 	c #A4A4D1",
"| 	c #A6A6D2",
"1 	c #A8A8D3",
"2 	c #AAAAD4",
"3 	c #ACACD5",
"4 	c #AFAFD7",
"5 	c #B0B0D7",
"6 	c #BABAAB",
"7 	c #DBDB8E",
"8 	c #E2E291",
"9 	c #E3E392",
"0 	c #BFBFD0",
"a 	c #B9B9DB",
"b 	c #BBBBDD",
"c 	c #BCBCDD",
"d 	c #BEBEDE",
"e 	c #C0C0DF",
"f 	c #C3C3E0",
"g 	c #C4C4E1",
"h 	c #C5C5E2",
"i 	c #C8C8E3",
"j 	c #CACAE4",
"k 	c #CCCCE5",
"l 	c #CECEE6",
"m 	c #CFCFE7",
"n 	c #D2D2E9",
"o 	c #D3D3E9",
"p 	c #B9B9C9",
"q 	c #B2B2C4",
"r 	c #D4D469",
"s 	c #F5F56B",
"t 	c #FCFC64",
"u 	c #FEFE65",
"v 	c #F6F673",
"w 	c #F4F476",
"x 	c #F5F576",
"y 	c #E3E39A",
"z 	c #C6C6D3",
"A 	c #C9C9D5",
"B 	c #CACAD5",
"C 	c #CACAD6",
"D 	c #CDCDD7",
"E 	c #CBCBD6",
"F 	c #C8C8E2",
"G 	c #BABAC9",
"H 	c #ADADD5",
"I 	c #AFAFB9",
"J 	c #CFCF61",
"K 	c #F1F160",
"L 	c #DCDCB2",
"M 	c #D6D6CB",
"N 	c #D0D0E7",
"O 	c #D4D4EA",
"P 	c #BCBCCA",
"Q 	c #ABABB5",
"R 	c #A4A459",
"S 	c #F0F060",
"T 	c #FDFC64",
"U 	c #F2F078",
"V 	c #D5D4C8",
"W 	c #D7D7EB",
"X 	c #B0B0D6",
"Y 	c #A5A596",
"Z 	c #98983D",
"` 	c #EFEF5F",
" .	c #FCFA64",
"..	c #F7F462",
"+.	c #F0EC70",
"@.	c #D4D3D1",
"#.	c #9D9D99",
"$.	c #8A8A36",
"%.	c #91913A",
"&.	c #EEEE5F",
"*.	c #FCFB64",
"=.	c #F9F763",
"-.	c #F5F161",
";.	c #F2ED5F",
">.	c #EEE765",
",.	c #D5D3CC",
"'.	c #959598",
").	c #777735",
"!.	c #838334",
"~.	c #8D8D38",
"{.	c #D3D354",
"].	c #FEFD65",
"^.	c #FBF963",
"/.	c #F8F562",
"(.	c #F5F060",
"_.	c #F1EB5F",
":.	c #EEE65D",
"<.	c #E4DD87",
"[.	c #B1B1D8",
"}.	c #7D7D5E",
"|.	c #72722D",
"1.	c #7E7E32",
"2.	c #898936",
"3.	c #AEAE45",
"4.	c #F2EC5F",
"5.	c #EFE85E",
"6.	c #EBE25C",
"7.	c #E2DB86",
"8.	c #BEBECB",
"9.	c #B2B2D8",
"0.	c #B4B4D9",
"a.	c #6E6E2C",
"b.	c #797930",
"c.	c #848435",
"d.	c #99993D",
"e.	c #FBFA64",
"f.	c #F9F662",
"g.	c #F6F261",
"h.	c #EFE75D",
"i.	c #ECE35C",
"j.	c #EADF5B",
"k.	c #E6DB59",
"l.	c #DBD6A6",
"m.	c #D5D5EA",
"n.	c #D8D8EB",
"o.	c #DBDBED",
"p.	c #BFBFCB",
"q.	c #979799",
"r.	c #6E6E31",
"s.	c #787830",
"t.	c #848434",
"u.	c #FDFD65",
"v.	c #F3EE60",
"w.	c #F0E95E",
"x.	c #EAE05B",
"y.	c #E6DA59",
"z.	c #E2D557",
"A.	c #D9D3A5",
"B.	c #DADAED",
"C.	c #707038",
"D.	c #74742F",
"E.	c #818133",
"F.	c #919139",
"G.	c #DEDE58",
"H.	c #FAF963",
"I.	c #F8F462",
"J.	c #E9DE5A",
"K.	c #E4D858",
"L.	c #E1D357",
"M.	c #DDD06C",
"N.	c #D8D5D2",
"O.	c #B7B7DA",
"P.	c #6D6D36",
"Q.	c #71712D",
"R.	c #7C7C31",
"S.	c #898937",
"T.	c #C0C04D",
"U.	c #F4EF60",
"V.	c #EEE75D",
"W.	c #E7DC5A",
"X.	c #E5D858",
"Y.	c #E2D457",
"Z.	c #DFD056",
"`.	c #DDCC54",
" +	c #D8D4C8",
".+	c #C0C0CC",
"++	c #B8B8DB",
"@+	c #888836",
"#+	c #B3B347",
"$+	c #F6F161",
"%+	c #F3ED5F",
"&+	c #ECE45C",
"*+	c #E4D758",
"=+	c #E0D056",
"-+	c #DAC853",
";+	c #D7D3C8",
">+	c #DDDDEE",
",+	c #C2C2CD",
"'+	c #969692",
")+	c #6B6B2A",
"!+	c #878736",
"~+	c #EDE55D",
"{+	c #E9DF5B",
"]+	c #E7DB59",
"^+	c #E1D256",
"/+	c #D8C452",
"(+	c #D7D2C8",
"_+	c #DFDFEF",
":+	c #ACACC0",
"<+	c #6B6B2B",
"[+	c #76762F",
"}+	c #ACAC45",
"|+	c #F9F963",
"1+	c #FAF863",
"2+	c #E8DE5A",
"3+	c #E5D959",
"4+	c #DFCF55",
"5+	c #DCCB54",
"6+	c #D5C151",
"7+	c #D6CFB6",
"8+	c #B9B9DC",
"9+	c #AEAEC1",
"0+	c #686829",
"a+	c #73732D",
"b+	c #94943B",
"c+	c #DADA56",
"d+	c #EDE45C",
"e+	c #E3D658",
"f+	c #E0D256",
"g+	c #DECE55",
"h+	c #DBCA54",
"i+	c #D7C351",
"j+	c #D4BF50",
"k+	c #D2BC4F",
"l+	c #C3C3CD",
"m+	c #AFAFC1",
"n+	c #CFCF52",
"o+	c #E4D658",
"p+	c #DCCA54",
"q+	c #D8C552",
"r+	c #CFB84E",
"s+	c #E1E1F0",
"t+	c #C5C5CE",
"u+	c #B7B7DB",
"v+	c #B0B0C4",
"w+	c #6D6D34",
"x+	c #70702D",
"y+	c #7D7D32",
"z+	c #8B8B37",
"A+	c #CCCC51",
"B+	c #F8F662",
"C+	c #EBE15B",
"D+	c #E8DD5A",
"E+	c #D9C753",
"F+	c #D6C251",
"G+	c #CBB24C",
"H+	c #DAD8E1",
"I+	c #E3E3F1",
"J+	c #B5B5D9",
"K+	c #9B9B98",
"L+	c #6A6A2A",
"M+	c #BBBB4A",
"N+	c #F7F762",
"O+	c #F1EA5E",
"P+	c #ECE25C",
"Q+	c #D7C452",
"R+	c #D0B94E",
"S+	c #CEB54D",
"T+	c #CAAF4B",
"U+	c #CCB770",
"V+	c #77772F",
"W+	c #93933A",
"X+	c #E7E75C",
"Y+	c #E2D357",
"Z+	c #CDB54D",
"`+	c #CBB14B",
" @	c #C7AB49",
".@	c #C6AC58",
"+@	c #D6CDBB",
"@@	c #9F9F9C",
"#@	c #6C6C2D",
"$@	c #74742E",
"%@	c #E5E55B",
"&@	c #F2EB5F",
"*@	c #DDCD55",
"=@	c #DBC953",
"-@	c #D6C151",
";@	c #CFB74D",
">@	c #CCB34C",
",@	c #C9AF4B",
"'@	c #C5A949",
")@	c #C2A447",
"!@	c #CEBC90",
"~@	c #E1E0EE",
"{@	c #C7C7CF",
"]@	c #89896F",
"^@	c #6F6F2C",
"/@	c #8A8A37",
"(@	c #D6D655",
"_@	c #F7F361",
":@	c #DECD55",
"<@	c #D9C652",
"[@	c #D3BE50",
"}@	c #CAB14B",
"|@	c #C4A748",
"1@	c #C1A246",
"2@	c #BF9F45",
"3@	c #D7CEBC",
"4@	c #E4E4F1",
"5@	c #E7E7F3",
"6@	c #C7C7D0",
"7@	c #BFBFDE",
"8@	c #C1C1DF",
"9@	c #8A8A6F",
"0@	c #A7A742",
"a@	c #DCCC54",
"b@	c #D5C050",
"c@	c #D1BB4F",
"d@	c #CEB64D",
"e@	c #C8AE4A",
"f@	c #C5A848",
"g@	c #C1A347",
"h@	c #BE9F45",
"i@	c #BC9B44",
"j@	c #D7CCBC",
"k@	c #E6E6F3",
"l@	c #C3C3E1",
"m@	c #6D6D2B",
"n@	c #92923A",
"o@	c #E0D156",
"p@	c #D0B84E",
"q@	c #C9AE4A",
"r@	c #C6AA49",
"s@	c #C3A648",
"t@	c #BFA046",
"u@	c #BA9743",
"v@	c #D6CBBB",
"w@	c #767645",
"x@	c #73732E",
"y@	c #7F7F32",
"z@	c #858535",
"A@	c #A0A040",
"B@	c #C3A547",
"C@	c #C0A046",
"D@	c #BC9C44",
"E@	c #CCB993",
"F@	c #C8C8D0",
"G@	c #777746",
"H@	c #7B7B31",
"I@	c #DCDC58",
"J@	c #D1BA4E",
"K@	c #CDB44C",
"L@	c #CAB04B",
"M@	c #C8AD4A",
"N@	c #BE9E45",
"O@	c #BC9A44",
"P@	c #BD9E55",
"Q@	c #D8CEC0",
"R@	c #E9E9F4",
"S@	c #CACAD1",
"T@	c #C6C6E2",
"U@	c #757545",
"V@	c #E1E159",
"W@	c #F4F060",
"X@	c #D2BB4F",
"Y@	c #896F31",
"Z@	c #DAD2CB",
"`@	c #EBEBF5",
" #	c #BEBED1",
".#	c #747442",
"+#	c #6C6C2B",
"@#	c #7A7A30",
"##	c #E4E45B",
"$#	c #F3F260",
"%#	c #F0E85E",
"&#	c #D6C952",
"*#	c #CBBD4E",
"=#	c #C7B84C",
"-#	c #C3B24A",
";#	c #C0AE49",
">#	c #AB9940",
",#	c #6B5F28",
"'#	c #6A5D27",
")#	c #685A27",
"!#	c #655725",
"~#	c #625324",
"{#	c #605025",
"]#	c #776849",
"^#	c #B0A89F",
"/#	c #DEDDE8",
"(#	c #ABABAA",
"_#	c #6D6D2C",
":#	c #A5A441",
"<#	c #C1BF4C",
"[#	c #D3D053",
"}#	c #DDD055",
"|#	c #B0A543",
"1#	c #877E34",
"2#	c #6C6429",
"3#	c #665D27",
"4#	c #615825",
"5#	c #5E5423",
"6#	c #5C5122",
"7#	c #5B4F22",
"8#	c #5A4D21",
"9#	c #60542D",
"0#	c #938B79",
"a#	c #918878",
"b#	c #968E81",
"c#	c #C1C1D2",
"d#	c #AAAAA6",
"e#	c #767646",
"f#	c #69692A",
"g#	c #6D6C2B",
"h#	c #6F6E2C",
"i#	c #73712D",
"j#	c #817E33",
"k#	c #D9D555",
"l#	c #8D8436",
"m#	c #625B25",
"n#	c #5F5624",
"o#	c #61592D",
"p#	c #B2AFAA",
"q#	c #B0ADA9",
"r#	c #B2AEAA",
"s#	c #B1ADAA",
"t#	c #B9B6B5",
"u#	c #CCCCD2",
"v#	c #C5C5D7",
"w#	c #C5C5D5",
"x#	c #A09F92",
"y#	c #757443",
"z#	c #6A682B",
"A#	c #6C6A2A",
"B#	c #72712D",
"C#	c #96943C",
"D#	c #E9DF60",
"E#	c #E5DB6E",
"F#	c #DCD8BB",
"G#	c #CECDD9",
"H#	c #CFCEDA",
"I#	c #CFCEDB",
"J#	c #E2E2F0",
"K#	c #EEEEF7",
"L#	c #CDCDD2",
"M#	c #CDCDE5",
"N#	c #B2B1B4",
"O#	c #6A6831",
"P#	c #6E6C2B",
"Q#	c #78752F",
"R#	c #E0DA58",
"S#	c #E0DBA6",
"T#	c #D8D8EC",
"U#	c #ECECF5",
"V#	c #EFEFF7",
"W#	c #CBCBE4",
"X#	c #CECEE7",
"Y#	c #D0D0E8",
"Z#	c #848262",
"`#	c #6A682A",
" $	c #74722E",
".$	c #AAA543",
"+$	c #EAE45C",
"@$	c #E5E08C",
"#$	c #DEDBB4",
"$$	c #EAEAF1",
"%$	c #9D9D9F",
"&$	c #CECEE0",
"*$	c #81805C",
"=$	c #696729",
"-$	c #7A7730",
";$	c #C9C34F",
">$	c #EBE571",
",$	c #DAD9D7",
"'$	c #D8D8E2",
")$	c #E7E7EE",
"!$	c #9E9D8F",
"~$	c #656228",
"{$	c #716E2C",
"]$	c #A8A455",
"^$	c #E8E38D",
"/$	c #DAD9DD",
"($	c #D8D8DF",
"_$	c #C6C6CA",
":$	c #C4C3CF",
"<$	c #7C7A53",
"[$	c #6B682A",
"}$	c #AAA892",
"|$	c #C1C0BB",
"1$	c #E4E4F2",
"2$	c #F0F0F7",
"3$	c #ACACAE",
"4$	c #9797A1",
"5$	c #C2C2DE",
"6$	c #BAB9BE",
"7$	c #67642F",
"8$	c #A8A698",
"9$	c #D6D5E8",
"0$	c #DDDDE4",
"a$	c #959597",
"b$	c #888889",
"c$	c #9898A1",
"d$	c #B3B3C7",
"e$	c #B5B5C7",
"f$	c #B6B6C8",
"g$	c #B8B8C9",
"h$	c #B8B8CA",
"i$	c #B9B9CA",
"j$	c #BBBBCB",
"k$	c #BDBDCC",
"l$	c #BEBECC",
"m$	c #BEBECD",
"n$	c #C1C1CE",
"o$	c #C2C2CF",
"p$	c #C4C4CF",
"q$	c #C6C6D0",
"r$	c #C7C7D1",
"s$	c #CACAD2",
"t$	c #CBCBD3",
"u$	c #CCCCD4",
"v$	c #CFCFD5",
"w$	c #868687",
"              . . . . . . . . . . . . . . . . . . . . . . . . . . . . . . . . . . . . . . . . . . . .                   ",
"        . . . . . . . . . . . . . . . . . . . . . . . . . . . . . . . . . . . . . . . . . . . . . . . . .               ",
"      . . . . . . . . . . . . . . . . . . . . . . . . . . . . . . . . . . . . . . . . . . . . . . . . . . .             ",
"    . . . . . . . . . . . . . . . . . . . . . . . . . . . . . . . . . . . . . . . . . . . . . . . . . . . . .           ",
"  . . . . . . . . . . . . . . . . . . . . . . . . . . . . . . . . . . . . . . . . . . . . . . . . . . . . . . .         ",
"  . . . . . . . . . . . . . . . . . . . . . . . . . . . . . . . . . . . . . . . . . . . . . . . . . . . . . . . +       ",
". . . . . . . . . . . . . . . . . . . . . . . . . . . . . . . . . . . . . . . . . . . . . . . . . . . . . . . . . @     ",
"# $ % % % % & & & & * * * * * = = = = - ; ; ; ; > > > > , ' ' ' ' ) ) ) ) ! ~ ~ ~ ~ { { { { ] ] ] ] ] ^ ^ ^ / ( ( _ :   ",
"< [ } } } | 1 1 1 2 3 3 3 3 4 5 5 5 6 7 8 8 8 8 9 9 0 a b c c c d e e e e f g g g h i i i j k k k k l m m m n o o p :   ",
"} } } } | 1 1 1 2 3 3 3 3 4 5 5 q r s t u u u u u u v w x x x x x x y z A B B B C D E F j k k k k l m m m n o o o G : : ",
"} } } | 1 1 1 2 3 3 3 H 4 5 5 I J u u u u u u u u u u u u u u u u u u u u u u u u u K L M k k k l m m N n o o o O P : : ",
"} } | 1 1 1 2 3 3 3 H 4 5 5 Q R S u u u u u u u u u u u u u u u u u u u u u u u u u u T U V k l m m N n o o o O W P : : ",
"} | 1 1 1 2 3 3 3 3 4 5 5 X Y Z ` u u u u u u u u u u u u u u u u u u u u u u u u u u  ...+.@.m m m n o o o O W W P : : ",
"| 1 1 1 2 3 3 3 H 4 5 5 5 #.$.%.&.u u u u u u u u u u u u u u u u u u u u u u u u u *.=.-.;.>.,.N n o o o O W W W P : : ",
"1 1 1 2 3 3 3 H 4 5 5 5 '.).!.~.{.u u u u u u u u u u u u u u u u u u u u u u u u ].^./.(._.:.<.n o o o O W W W W P : : ",
"1 1 2 3 3 3 3 4 5 5 5 [.}.|.1.2.3.u u u u u u u u u u u u u u u u u u u u u u u ]. ./.(.4.5.6.7.o o o O W W W W W 8.: : ",
"1 2 3 3 3 H 5 5 5 5 9.0.}.a.b.c.d.u u u u u u u u u u u u u u u u u u u u u u ].e.f.g.4.h.i.j.k.l.o m.W W W W n.o.p.: : ",
"2 3 3 3 H 4 5 5 5 [.0.0.q.r.s.t.d.u u u u u u u u u u u u u u u u u u u u u u. .f.g.v.w.i.x.y.z.A.O W W W W n.B.o.p.: : ",
"3 3 3 3 4 5 5 5 9.0.0.0.0.C.D.E.F.G.u u u u u u u u u u u u u u u u u u u u T H.I.-._.:.6.J.K.L.M.N.W W W W B.o.o.p.: : ",
"3 3 H 5 5 5 5 9.0.0.0.0.O.P.Q.R.S.T.u u u u u u u u u u u u u u u u u u u u.^...U._.V.6.W.X.Y.Z.`. +W W n.o.o.o.o..+: : ",
"3 H 4 5 5 5 9.0.0.0.0.O.++P.Q.R.@+#+u u u u u u u u u u u u u u u u u u u.^./.$+%+w.&+J.k.*+=+`.-+;+W n.B.o.o.o.>+,+: : ",
"H 4 5 5 5 9.0.0.0.0.O.++++'+)+s.!+#+u u u u u u u u u u u u u u u u u u e./.$+v.w.~+{+]+*+^+`.-+/+(+n.B.o.o.o.>+_+,+: : ",
"5 5 5 5 9.0.0.0.0.O.++++++:+<+[+t.}+|+u u u u u u u u u u u u u u u u T 1+..(.4.:.6.2+3+L.4+5+/+6+7+o.o.o.o.>+_+_+,+: : ",
"5 5 5 9.0.0.0.0.O.++++++8+9+0+a+1.b+c+u u u u u u u u u u u u u u u u.H...(.4.w.d+x.k.e+f+g+h+i+j+k+o.o.o.>+_+_+_+l+: : ",
"5 5 9.0.0.0.0.O.++++++8+c m+0+a+1.~.n+u u u u u u u u u u u u u u T H.I.(.4.w.~+x.W.o+^+g+p+q+j+k+r+o.o.>+_+_+_+s+t+: : ",
"5 9.0.0.0.0.u+++++++8+c c v+w+x+y+z+A+u u u u u u u u u u u u u u *.B+-.;.w.~+C+D+K.^+g+p+E+F+k+r+G+H+>+_+_+_+s+I+t+: : ",
"9.0.0.0.J+O.++++++8+c c c c K+L+b.@+M+N+u u u u u u u u u u u u u.f.g.v.O+:.P+{+3+Y.Z.`.-+Q+j+R+S+T+U+_+_+_+s+I+I+t+: : ",
"0.0.0.0.O.++++++8+c c c c d #.)+V+!.W+X+u u u u u u u u u u u u.^.g.v.O+:.6.D+3+Y+Z.`.-+Q+j+R+Z+`+ @.@+@_+s+I+I+I+t+: : ",
"0.0.0.u+++++++8+c c c c d e @@#@$@E.~.%@u u u u u u u u u u ].e.f.U.&@5.&+x.W.*+^+*@=@q+-@k+;@>@,@'@)@!@~@I+I+I+I+{@: : ",
"0.J+u+++++++8+c c c c d e e e ]@^@1./@(@u u u u u u u u u u  .=._@4.5.d+x.]+K.^+:@h+<@F+[@R+S+}@ @|@1@2@3@I+I+4@5@6@: : ",
"0.O.++++++8+c c c c 7@e e e 8@9@a.b.!.0@u u u u u u u u u u.H./.$+O+:.i.J.X.z.Z.a@-+/+b@c@d@G+e@f@g@h@i@j@I+4@k@5@6@: : ",
"u+++++++8+c c c c d e e e e l@9@m@s.!.n@u u u u u u u u u.^./.$+v.V.i.{+]+o+o@g+h+/+6+k+p@>@q@r@s@t@i@u@v@I+k@5@5@6@: : ",
"++++++8+c c c c 7@e e e 8@g g g w@x@y@z@A@u u u u u u u.e./.-.%+w.P+J.y.o+o@g+5+q+b@k+r+>@q@r@B@C@D@u@E@4@5@5@5@5@F@: : ",
"++++8+c c c c 7@e e e 8@l@g g g G@x@s.H@~.I@u u u u u.H./.$+v.O+h.x.W.X.Y.g+`.-+-@[@J@K@L@M@|@g@N@O@P@Q@k@5@5@5@R@S@: : ",
"++8+c c c c 7@e e e 8@l@g g g T@U@a.|.[+s./@V@u u u *.=._@W@O+:.i.W.y.e+^+5+-+Q+j+X@r+>@q@'@B@h@i@Y@Z@k@5@5@5@R@`@S@: : ",
"8+c c c c 7@e e e 8@g g g g T@i  #.#+#^@|.x@@#I@##$#1+..-.%+%#~+C+W.X.&#*#=#-#;#>#,#'#)#!#~#{#]#^#/#5@5@5@5@R@`@`@S@: : ",
"c c c c 7@e e e 8@l@g g g T@i i i (#0+)+_#a.Q.x@$@:#<#[#U.&@h.i.x.}#|#1#2#3#4#5#6#7#8#9#0#a#b#I+4@k@5@5@5@R@`@`@`@S@: : ",
"c c c 7@e e e 8@l@g g g T@i i i j c#d#e#f#<++#g#h#i#j#k#&@5.i.x.W.l#m#n#o#p#q#r#r#r#s#t#I+I+I+4@k@5@5@5@R@`@`@`@`@u#: : ",
"c c 7@e e e 8@g g g g T@i i i j k k k v#w#x#y#z#A#B#C#;.w.~+D#E#F#G#H#H#I#o.>+_+_+_+J#I+I+I+4@5@5@5@5@R@`@`@`@`@K#L#: : ",
"c 7@e e e 8@g g g g T@i i i j k k k M#m m m N#O#P#Q#R#w.:.i.S#W T#o.o.o.o.>+_+_+_+J#I+I+I+4@5@5@5@5@R@`@`@`@U#K#V#L#: : ",
"d e e e 8@l@g g g T@i i i W#k k k M#X#m m Y#Z#`# $.$+$:.@$#$W T#o.o.o.o.>+_+_+_+J#I+I+I+4@k@5@5@5@R@`@`@`@`@K#V#$$%$: : ",
"  e e 8@g g g g T@i i i j k k k k m m m Y#&$*$=$-$;$>$,$'$W T#o.o.o.o.>+_+_+_+J#I+I+I+4@5@5@5@5@R@`@`@`@`@K#V#V#)$: : : ",
"  e 8@g g g g T@i i i W#k k k M#m m m Y#o !$~${$]$^$/$W W T#o.o.o.o.>+_+_+_+J#I+I+I+4@5@5@5@5@R@`@`@`@U#K#V#V#($_$: : : ",
"    l@g g g T@i i i W#k k k M#m m m Y#o :$<$[$}$|$W W W T#o.o.o.o.>+_+_+_+J#I+I+I+1$k@5@5@5@R@`@`@`@U#K#V#V#2$3$: : :   ",
"      4$5$T@i i i W#k k k k m m m Y#o o 6$7$8$9$W W W T#o.o.o.o.>+_+_+_+J#I+I+I+4@5@5@5@5@R@`@`@`@`@K#V#V#0$a$b$: : :   ",
"        c$d$d$d$e$f$f$f$f$g$h$h$i$j$j$j$j$k$l$l$l$l$m$n$n$n$n$o$p$p$p$q$r$r$r$r$s$s$s$s$t$u$u$u$u$v$v$v$v$w$: : : :     ",
"            : : : : : : : : : : : : : : : : : : : : : : : : : : : : : : : : : : : : : : : : : : : : : : : : : : :       ",
"              : : : : : : : : : : : : : : : : : : : : : : : : : : : : : : : : : : : : : : : : : : : : : : : : :         "};
