/* XPM */
static char * help_xpm[] = {
"60 48 216 2",
"  	c None",
". 	c #666699",
"+ 	c #676798",
"@ 	c #686897",
"# 	c #808080",
"$ 	c #6F6F90",
"% 	c #7C7CAE",
"& 	c #7D7DAE",
"* 	c #7E7EAE",
"= 	c #7F7FAF",
"- 	c #8181B0",
"; 	c #8282B1",
"> 	c #8383B1",
", 	c #8484B1",
"' 	c #8585B2",
") 	c #8686B3",
"! 	c #8787B3",
"~ 	c #8888B4",
"{ 	c #8989B4",
"] 	c #8A8AB4",
"^ 	c #8B8BB5",
"/ 	c #8D8DB6",
"( 	c #8E8EB7",
"_ 	c #8F8FB7",
": 	c #9090B7",
"< 	c #8B8BA6",
"[ 	c #A1A1CF",
"} 	c #A3A3D1",
"| 	c #A4A4D1",
"1 	c #A6A6D2",
"2 	c #A8A8D3",
"3 	c #AAAAD4",
"4 	c #ACACD5",
"5 	c #AFAFD7",
"6 	c #B0B0D7",
"7 	c #B1B1D8",
"8 	c #B4B4D9",
"9 	c #B7B7DA",
"0 	c #B8B8DB",
"a 	c #B9B9DB",
"b 	c #BBBBDD",
"c 	c #BCBCDD",
"d 	c #BEBEDE",
"e 	c #C0C0DF",
"f 	c #C3C3E0",
"g 	c #C4C4E1",
"h 	c #C5C5E2",
"i 	c #C8C8E3",
"j 	c #CACAE4",
"k 	c #CCCCE5",
"l 	c #CECEE6",
"m 	c #CFCFE7",
"n 	c #D2D2E9",
"o 	c #D3D3E9",
"p 	c #B9B9C9",
"q 	c #B6B6DA",
"r 	c #C3C3E1",
"s 	c #BABAC9",
"t 	c #ADADD5",
"u 	c #C1C1DF",
"v 	c #D0D0E7",
"w 	c #D4D4EA",
"x 	c #BCBCCA",
"y 	c #D7D7EB",
"z 	c #CE748C",
"A 	c #E73743",
"B 	c #E83843",
"C 	c #E93943",
"D 	c #E93944",
"E 	c #EA3A44",
"F 	c #C7A9C4",
"G 	c #C6BAD6",
"H 	c #D294AA",
"I 	c #DF6C7C",
"J 	c #EB4650",
"K 	c #ED3D46",
"L 	c #EE3E46",
"M 	c #EF3F46",
"N 	c #DB8C9E",
"O 	c #DA5668",
"P 	c #FF0000",
"Q 	c #CA9EB8",
"R 	c #F2272D",
"S 	c #FE0101",
"T 	c #E36F7C",
"U 	c #BEBECB",
"V 	c #B2B2D8",
"W 	c #FC0809",
"X 	c #CECEE7",
"Y 	c #D5D5EA",
"Z 	c #D8D8EB",
"` 	c #DBDBED",
" .	c #BFBFCB",
"..	c #CB9FB8",
"+.	c #FD0405",
"@.	c #F91518",
"#.	c #E4707D",
"$.	c #DADAED",
"%.	c #DC5869",
"&.	c #E54754",
"*.	c #C69EBA",
"=.	c #C8A0BB",
"-.	c #C9A1BC",
";.	c #C4BEDB",
">.	c #E8515C",
",.	c #DF7483",
"'.	c #D39DB2",
").	c #CBC5DE",
"!.	c #DE8292",
"~.	c #E05463",
"{.	c #C0C0CC",
"].	c #E5717D",
"^.	c #DDDDEE",
"/.	c #C2C2CD",
"(.	c #E64551",
"_.	c #CA9AB4",
":.	c #CB9BB5",
"<.	c #CE9EB6",
"[.	c #CF9FB6",
"}.	c #CBACC5",
"|.	c #E6727F",
"1.	c #DFDFEF",
"2.	c #DD5969",
"3.	c #EA424C",
"4.	c #C6C6E2",
"5.	c #DF8393",
"6.	c #E7737F",
"7.	c #B9B9DC",
"8.	c #DE5A6A",
"9.	c #EB434D",
"0.	c #E08493",
"a.	c #C3C3CD",
"b.	c #EC444D",
"c.	c #E1E1F0",
"d.	c #C5C5CE",
"e.	c #B7B7DB",
"f.	c #F51D22",
"g.	c #E9414C",
"h.	c #DF7181",
"i.	c #E8747F",
"j.	c #E3E3F1",
"k.	c #B5B5D9",
"l.	c #E35764",
"m.	c #E28694",
"n.	c #E97580",
"o.	c #DF5B6B",
"p.	c #E35765",
"q.	c #E05C6B",
"r.	c #E45865",
"s.	c #C7C7CF",
"t.	c #E4E4F1",
"u.	c #E7E7F3",
"v.	c #C7C7D0",
"w.	c #BFBFDE",
"x.	c #E47A88",
"y.	c #E96974",
"z.	c #F1434A",
"A.	c #F43A3F",
"B.	c #EC6C76",
"C.	c #ED6D76",
"D.	c #EB757F",
"E.	c #E2E2F0",
"F.	c #E6E6F3",
"G.	c #E55965",
"H.	c #F72327",
"I.	c #FC1011",
"J.	c #E25E6C",
"K.	c #E65A66",
"L.	c #C8C8D0",
"M.	c #CDCDE5",
"N.	c #D0D0E8",
"O.	c #E9E9F4",
"P.	c #CACAD1",
"Q.	c #EBEBF5",
"R.	c #D8D8EC",
"S.	c #CCCCD2",
"T.	c #EEEEF7",
"U.	c #CDCDD2",
"V.	c #ECECF5",
"W.	c #EFEFF7",
"X.	c #CBCBE4",
"Y.	c #EAEAF1",
"Z.	c #9D9D9F",
"`.	c #DEDEE5",
" +	c #C1C1E0",
".+	c #D8D8DF",
"++	c #8B8B8C",
"@+	c #E4E4F2",
"#+	c #D7D7DD",
"$+	c #929294",
"%+	c #C3C3DF",
"&+	c #C5C5E0",
"*+	c #EBEBF3",
"=+	c #DDDDE3",
"-+	c #8D8D8E",
";+	c #A4A4B1",
">+	c #B3B3C7",
",+	c #B5B5C7",
"'+	c #B6B6C8",
")+	c #B8B8C9",
"!+	c #B8B8CA",
"~+	c #B9B9CA",
"{+	c #BBBBCB",
"]+	c #BDBDCC",
"^+	c #BEBECC",
"/+	c #BEBECD",
"(+	c #C1C1CE",
"_+	c #C2C2CF",
":+	c #C4C4CF",
"<+	c #C6C6D0",
"[+	c #C7C7D1",
"}+	c #CACAD2",
"|+	c #CBCBD3",
"1+	c #CCCCD4",
"2+	c #CFCFD5",
"3+	c #98989A",
"          . . . . . . . . . . . . . . . . . . . . . . . . . . . . . . . . . . . . . . . . . . . . . . .                 ",
"      . . . . . . . . . . . . . . . . . . . . . . . . . . . . . . . . . . . . . . . . . . . . . . . . . . .             ",
"      . . . . . . . . . . . . . . . . . . . . . . . . . . . . . . . . . . . . . . . . . . . . . . . . . . . .           ",
"  . . . . . . . . . . . . . . . . . . . . . . . . . . . . . . . . . . . . . . . . . . . . . . . . . . . . . . .         ",
"  . . . . . . . . . . . . . . . . . . . . . . . . . . . . . . . . . . . . . . . . . . . . . . . . . . . . . . . +       ",
"  . . . . . . . . . . . . . . . . . . . . . . . . . . . . . . . . . . . . . . . . . . . . . . . . . . . . . . . @ #     ",
". . . . . . . . . . . . . . . . . . . . . . . . . . . . . . . . . . . . . . . . . . . . . . . . . . . . . . . . . $ #   ",
"% & * * * * = = = = - - - - - ; ; ; ; > , , , , ' ' ' ' ) ! ! ! ! ~ ~ ~ ~ { ] ] ] ] ^ ^ ^ ^ / / / / / ( ( ( _ : : < #   ",
"[ } | | | 1 2 2 2 3 4 4 4 4 5 6 6 6 7 8 8 8 8 9 0 0 0 a b c c c d e e e e f g g g h i i i j k k k k l m m m n o o p # # ",
"| | | | 1 2 2 2 3 4 4 4 4 5 6 6 6 7 8 8 8 8 q 0 0 0 a c c c c d e e e e r g g g h i i i j k k k k l m m m n o o o s # # ",
"| | | 1 2 2 2 3 4 4 4 t 5 6 6 6 7 8 8 8 8 9 0 0 0 a c c c c d e e e u f g g g h i i i j k k k k l m m v n o o o w x # # ",
"| | 1 2 2 2 3 4 4 4 t 5 6 6 6 7 8 8 8 8 9 0 0 0 a b c c c d e e e e f g g g h i i i j k k k k l m m v n o o o w y x # # ",
"| 1 2 2 2 3 4 4 4 4 5 6 6 6 7 8 8 8 8 9 0 0 0 a c c c c d e e e e r g g g h i i i j k k k k l m m m n o o o w y y x # # ",
"1 2 2 2 3 4 4 4 t 5 6 6 6 7 8 8 8 8 9 0 0 0 a c c c c d e e e u r g g g h i i i j k k k k l m m v n o o o w y y y x # # ",
"2 2 2 3 4 4 4 t 5 6 6 6 7 z A A A B C C C C D E E E E F e e e f g G H I J K K L M N k k l m m v n o o o w y y y y x # # ",
"2 2 3 4 4 4 4 5 6 6 6 7 8 O P P P P P P P P P P P P P Q e e r g R S P P P P P P P T k l m m m n o o o w y y y y y U # # ",
"2 3 4 4 4 t 6 6 6 6 V 8 8 O P P P P P P P P P P P P P Q u r g g W P P P P P P P P T X m m v o o o o Y y y y y Z `  .# # ",
"3 4 4 4 t 5 6 6 6 7 8 8 8 O P P P P P P P P P P P P P ..r g g g W P P +.@.P P P P #.m m v n o o o w y y y y Z $.`  .# # ",
"4 4 4 4 5 6 6 6 V 8 8 8 8 %.P P P P &.*.*.*.=.-.-.-.-.;.g g g h >.,.'.).!.P P P P #.m m n o o o Y y y y y y $.` `  .# # ",
"4 4 t 6 6 6 6 V 8 8 8 8 9 %.P P P P ~.c c d e e e e r g g g h i i i j k !.P P P P #.v o o o o Y y y y y Z ` ` ` ` {.# # ",
"4 t 5 6 6 6 V 8 8 8 8 9 0 %.P P P P ~.c d e e e u r g g g h i i i j k k !.P P P P ].n o o o Y y y y y Z $.` ` ` ^./.# # ",
"t 5 6 6 6 V 8 8 8 8 9 0 0 %.P P P P (._.:.:.:.:.<.[.}.g h i i i j k k k !.P P P P |.o o o Y y y y y Z $.` ` ` ^.1./.# # ",
"6 6 6 6 V 8 8 8 8 9 0 0 0 2.P P P P P P P P P P P P 3.4.i i i j k k k k 5.P P P P 6.o o Y y y y y y ` ` ` ` ^.1.1./.# # ",
"6 6 6 V 8 8 8 8 9 0 0 0 7.8.P P P P P P P P P P P P 9.i i i j k k k k X 0.P P P P 6.o Y y y y y Z $.` ` ` ^.1.1.1.a.# # ",
"6 6 V 8 8 8 8 9 0 0 0 7.c 8.P P P P P P P P P P P P b.i i j k k k k X m 0.P P P P 6.Y y y y y Z $.` ` ` ^.1.1.1.c.d.# # ",
"6 V 8 8 8 8 e.0 0 0 7.c c 8.P P P P f.g.3.3.3.3.9.b.h.i j k k k k X m m 0.P P P P i.y y y y Z ` ` ` ` ^.1.1.1.c.j.d.# # ",
"V 8 8 8 k.9 0 0 0 7.c c c 8.P P P P l.r g g g 4.i i i j k k k k X m m v m.P P P P n.y y y Z ` ` ` ` ^.1.1.1.c.j.j.d.# # ",
"8 8 8 8 9 0 0 0 7.c c c c o.P P P P p.g g g 4.i i i j k k k k X m m v n m.P P P P n.y y Z $.` ` ` ^.1.1.1.c.j.j.j.d.# # ",
"8 8 8 e.0 0 0 7.c c c c d q.P P P P r.g g 4.i i i j k k k k m m m v o o m.P P P P n.y Z ` ` ` ` ^.1.1.1.c.j.j.j.j.s.# # ",
"8 k.e.0 0 0 7.c c c c d e q.P P P P r.g 4.i i i j k k k k m m m v o o o m.P P P P n.Z ` ` ` ` ^.1.1.1.c.j.j.j.t.u.v.# # ",
"8 9 0 0 0 7.c c c c w.e e q.P P P P r.4.i i i j k k k k X m m v x.y.y.y.z.P P P P A.B.C.C.D.^.1.1.1.E.j.j.j.t.F.u.v.# # ",
"e.0 0 0 7.c c c c d e e e q.P P P P G.i i i j k k k k m m m v n H.P P P P P P P P P P P P I.1.1.1.c.j.j.j.j.F.u.u.v.# # ",
"0 0 0 7.c c c c w.e e e u J.P P P P K.i i j k k k k m m m v o o H.P P P P P P P P P P P P I.1.1.E.j.j.j.t.u.u.u.u.L.# # ",
"0 0 7.c c c c w.e e e u r J.P P P P K.i j k k k M.X m m N.o o o H.P P P P P P P P P P P P I.1.E.j.j.j.t.F.u.u.u.O.P.# # ",
"0 7.c c c c w.e e e u r g g g 4.i i i j k k k k X m m v n o o o Y y y y y Z $.` ` ` ^.1.1.1.E.j.j.j.t.F.u.u.u.O.Q.P.# # ",
"7.c c c c w.e e e u g g g g 4.i i i j k k k k m m m v o o o o Y y y y y Z ` ` ` ` ^.1.1.1.E.j.j.j.t.u.u.u.u.O.Q.Q.P.# # ",
"c c c c w.e e e u r g g g 4.i i i j k k k M.X m m N.o o o o Y y y y y R.` ` ` ` ^.1.1.1.E.j.j.j.t.F.u.u.u.O.Q.Q.Q.P.# # ",
"c c c w.e e e u r g g g 4.i i i j k k k k X m m N.n o o o Y y y y y R.$.` ` ` ^.1.1.1.E.j.j.j.t.F.u.u.u.O.Q.Q.Q.Q.S.# # ",
"c c w.e e e u g g g g 4.i i i j k k k k m m m v o o o o Y y y y y Z ` ` ` ` ^.1.1.1.E.j.j.j.t.u.u.u.u.O.Q.Q.Q.Q.T.U.# # ",
"c w.e e e u g g g g 4.i i i j k k k M.m m m N.o o o o Y y y y y R.` ` ` ` ^.1.1.1.E.j.j.j.t.u.u.u.u.O.Q.Q.Q.V.T.W.U.# # ",
"d e e e u r g g g 4.i i i X.k k k M.X m m N.o o o o Y y y y y R.` ` ` ` ^.1.1.1.E.j.j.j.t.F.u.u.u.O.Q.Q.Q.Q.T.W.Y.Z.# # ",
"  e e u g g g g 4.i i i j k k k k m m m N.o o o o Y y y y y R.` ` ` ` ^.1.1.1.E.j.j.j.t.u.u.u.u.O.Q.Q.Q.Q.T.W.W.`.# # # ",
"     +g g g g 4.i i i X.k k k M.m m m N.o o o o Y y y y y R.` ` ` ` ^.1.1.1.E.j.j.j.t.u.u.u.u.O.Q.Q.Q.V.T.W.W..+++# # # ",
"      g g g 4.i i i X.k k k M.m m m N.o o o o Y y y y y R.` ` ` ` ^.1.1.1.E.j.j.j.@+F.u.u.u.O.Q.Q.Q.V.T.W.W.#+$+# # #   ",
"        %+&+i i i X.k k k k m m m N.o o o o Y y y y y R.` ` ` ` ^.1.1.1.E.j.j.j.t.u.u.u.u.O.Q.Q.Q.Q.T.W.*+=+-+# # # #   ",
"          ;+>+>+,+'+'+'+'+)+!+!+~+{+{+{+{+]+^+^+^+^+/+(+(+(+(+_+:+:+:+<+[+[+[+[+}+}+}+}+|+1+1+1+1+2+2+2+3+# # # #       ",
"            # # # # # # # # # # # # # # # # # # # # # # # # # # # # # # # # # # # # # # # # # # # # # # # # # # #       ",
"                # # # # # # # # # # # # # # # # # # # # # # # # # # # # # # # # # # # # # # # # # # # # # # #           "};
