/* XPM */
static char * pibrowser_xpm[] = {
"60 48 602 2",
"  	c None",
". 	c #666699",
"+ 	c #676798",
"@ 	c #686897",
"# 	c #808080",
"$ 	c #6E6B98",
"% 	c #C49C8D",
"& 	c #F0B687",
"* 	c #A08791",
"= 	c #787197",
"- 	c #707090",
"; 	c #7C7CAE",
"> 	c #7D7DAE",
", 	c #7E7EAE",
"' 	c #7F7FAF",
") 	c #8181B0",
"! 	c #8282B1",
"~ 	c #8383B1",
"{ 	c #8484B1",
"] 	c #817CA6",
"^ 	c #AA7D74",
"/ 	c #FFBE85",
"( 	c #A08891",
"_ 	c #9288A6",
": 	c #8888B4",
"< 	c #8989B4",
"[ 	c #8A8AB4",
"} 	c #8B8BB5",
"| 	c #8D8DB6",
"1 	c #8E8EB7",
"2 	c #8F8FB7",
"3 	c #9090B7",
"4 	c #8B8BA6",
"5 	c #A1A1CF",
"6 	c #A3A3D1",
"7 	c #A4A4D1",
"8 	c #A6A6D2",
"9 	c #A8A8D3",
"0 	c #AAAAD4",
"a 	c #ACACD5",
"b 	c #AFAFD7",
"c 	c #B0B0D7",
"d 	c #B1B1D8",
"e 	c #B4B4D9",
"f 	c #B0A3BD",
"g 	c #BA6C44",
"h 	c #F0A37E",
"i 	c #C6B9CF",
"j 	c #C3C3E0",
"k 	c #C4C4E1",
"l 	c #C5C5E2",
"m 	c #C8C8E3",
"n 	c #CACAE4",
"o 	c #CCCCE5",
"p 	c #CECEE6",
"q 	c #CFCFE7",
"r 	c #D2D2E9",
"s 	c #D3D3E9",
"t 	c #B9B9C9",
"u 	c #B6B6DA",
"v 	c #B4A5BE",
"w 	c #A84825",
"x 	c #DF8F5E",
"y 	c #F9B47D",
"z 	c #FFB77E",
"A 	c #F49268",
"B 	c #BABAC9",
"C 	c #ADADD5",
"D 	c #C6B4C0",
"E 	c #CDB7BD",
"F 	c #C0B6CC",
"G 	c #B7B7DA",
"H 	c #B8B8DB",
"I 	c #ABA2BC",
"J 	c #7B3118",
"K 	c #9C3F1E",
"L 	c #AF4A27",
"M 	c #DC9C6B",
"N 	c #FFBA82",
"O 	c #FFB17A",
"P 	c #F9A671",
"Q 	c #FFBE86",
"R 	c #FABA86",
"S 	c #D0D0E7",
"T 	c #D4D4EA",
"U 	c #BCBCCA",
"V 	c #9E8494",
"W 	c #EEB181",
"X 	c #EEBC98",
"Y 	c #DFBAA9",
"Z 	c #E1BBAA",
"` 	c #C4B9CC",
" .	c #662914",
"..	c #6F2D16",
"+.	c #8E381B",
"@.	c #9F4B2A",
"#.	c #DE9A69",
"$.	c #FFBF86",
"%.	c #FFBC85",
"&.	c #FF9D6A",
"*.	c #F27849",
"=.	c #F09F6E",
"-.	c #D87F51",
";.	c #DE8359",
">.	c #D7D7EB",
",.	c #B0AFD4",
"'.	c #986662",
").	c #EDAA75",
"!.	c #F6BD90",
"~.	c #EFB990",
"{.	c #E2A26F",
"].	c #E4A270",
"^.	c #EAA571",
"/.	c #EEA672",
"(.	c #F4B27C",
"_.	c #FF8952",
":.	c #EC8C5C",
"<.	c #B8552F",
"[.	c #9A4223",
"}.	c #BB532D",
"|.	c #BA4A24",
"1.	c #C85D3C",
"2.	c #A1838F",
"3.	c #CF895B",
"4.	c #F59D68",
"5.	c #C5683E",
"6.	c #A85C38",
"7.	c #C8693E",
"8.	c #C5582F",
"9.	c #C4B3C5",
"0.	c #B0AAC9",
"a.	c #AA7567",
"b.	c #E8A571",
"c.	c #F09E6A",
"d.	c #E5BAA4",
"e.	c #E5C3B2",
"f.	c #DCA699",
"g.	c #D58E83",
"h.	c #D49E9A",
"i.	c #ACA0BB",
"j.	c #B36943",
"k.	c #FBB17A",
"l.	c #F8A670",
"m.	c #F7AC7A",
"n.	c #F3A680",
"o.	c #D8B6BC",
"p.	c #BEBECB",
"q.	c #B2B2D8",
"r.	c #FFB87F",
"s.	c #E6BAAB",
"t.	c #D0CEE4",
"u.	c #D5D5EA",
"v.	c #D8D8EB",
"w.	c #DBDBED",
"x.	c #BFBFCB",
"y.	c #A47C7D",
"z.	c #D79262",
"A.	c #FFAD77",
"B.	c #FFA56B",
"C.	c #EB733E",
"D.	c #D0C7DA",
"E.	c #DADAED",
"F.	c #9A5338",
"G.	c #FFC189",
"H.	c #FFC990",
"I.	c #FFA16E",
"J.	c #CC6B40",
"K.	c #E59260",
"L.	c #D45F31",
"M.	c #CEC5D8",
"N.	c #94605B",
"O.	c #F1AF79",
"P.	c #FFB67F",
"Q.	c #FCBD86",
"R.	c #DC8051",
"S.	c #A84624",
"T.	c #752F17",
"U.	c #BE6D44",
"V.	c #F9B67F",
"W.	c #D6714B",
"X.	c #D2CBDD",
"Y.	c #C0C0CC",
"Z.	c #945D55",
"`.	c #F49E6B",
" +	c #F7A570",
".+	c #FDAA71",
"++	c #D86E42",
"@+	c #C64F26",
"#+	c #A44120",
"$+	c #7D3218",
"%+	c #89361A",
"&+	c #DD9565",
"*+	c #FFA46A",
"=+	c #E1BBB8",
"-+	c #DDDDEE",
";+	c #C2C2CD",
">+	c #9B6056",
",+	c #F3915F",
"'+	c #F28757",
")+	c #E38858",
"!+	c #DC7244",
"~+	c #C74F27",
"{+	c #BB4B24",
"]+	c #8D381C",
"^+	c #773017",
"/+	c #DB9564",
"(+	c #FFA368",
"_+	c #E1BAB7",
":+	c #DFDFEF",
"<+	c #BDB8D5",
"[+	c #946559",
"}+	c #B8512A",
"|+	c #913D20",
"1+	c #BB4E27",
"2+	c #CD5228",
"3+	c #BB4A24",
"4+	c #BF4C25",
"5+	c #934731",
"6+	c #DC9564",
"7+	c #FFB278",
"8+	c #FB8248",
"9+	c #DEB8B6",
"0+	c #D2CDDF",
"a+	c #C48878",
"b+	c #F1B283",
"c+	c #F2C6A7",
"d+	c #DDCDD6",
"e+	c #D9D4E5",
"f+	c #B3ACCA",
"g+	c #CEA08C",
"h+	c #F18952",
"i+	c #A94723",
"j+	c #B54823",
"k+	c #C04D25",
"l+	c #CA5127",
"m+	c #BE634B",
"n+	c #C47A6C",
"o+	c #AF9EB1",
"p+	c #934A2B",
"q+	c #E9A471",
"r+	c #FFB177",
"s+	c #E6825B",
"t+	c #D0B9C4",
"u+	c #D2CCDE",
"v+	c #C68D7C",
"w+	c #EBA16D",
"x+	c #FFA36A",
"y+	c #EEA994",
"z+	c #C3C3CD",
"A+	c #BDADBE",
"B+	c #E6A26F",
"C+	c #FFBA81",
"D+	c #F4945D",
"E+	c #C35B31",
"F+	c #AA4421",
"G+	c #CC674B",
"H+	c #BFABBE",
"I+	c #C0C0DF",
"J+	c #AC7364",
"K+	c #E7A36F",
"L+	c #EBB9A5",
"M+	c #BF9593",
"N+	c #E8B99B",
"O+	c #EAA16D",
"P+	c #FFA66E",
"Q+	c #ECAB99",
"R+	c #E1E1F0",
"S+	c #C5C5CE",
"T+	c #B7B7DB",
"U+	c #A56247",
"V+	c #FFA86E",
"W+	c #D9998A",
"X+	c #BDADC1",
"Y+	c #C2B5CD",
"Z+	c #B0613B",
"`+	c #FCBF8B",
" @	c #F4B37F",
".@	c #FEBD84",
"+@	c #F78E65",
"@@	c #E3E3F1",
"#@	c #B5B5D9",
"$@	c #B9B9DC",
"%@	c #A05432",
"&@	c #F18551",
"*@	c #C6B2C4",
"=@	c #BCAABD",
"-@	c #D1B8BA",
";@	c #F89167",
">@	c #A38087",
",@	c #D69161",
"'@	c #FFAB71",
")@	c #E8BAA1",
"!@	c #E4BFAC",
"~@	c #DFA280",
"{@	c #F79C69",
"]@	c #FFA26E",
"^@	c #FE9B67",
"/@	c #FC9360",
"(@	c #FD9460",
"_@	c #FEAE77",
":@	c #C5744A",
"<@	c #D09062",
"[@	c #F8956B",
"}@	c #BCBCDD",
"|@	c #905346",
"1@	c #FFBF87",
"2@	c #FFB982",
"3@	c #F98253",
"4@	c #F67C4E",
"5@	c #F36E41",
"6@	c #F67143",
"7@	c #F77143",
"8@	c #E96F41",
"9@	c #E17345",
"0@	c #FDB981",
"a@	c #FFBD84",
"b@	c #CF5D2E",
"c@	c #A24B2A",
"d@	c #F8A771",
"e@	c #C7C7CF",
"f@	c #B3A7BF",
"g@	c #A86951",
"h@	c #FFB97F",
"i@	c #F7A56D",
"j@	c #EDA46F",
"k@	c #732E16",
"l@	c #672914",
"m@	c #6A2A14",
"n@	c #87371B",
"o@	c #B64B27",
"p@	c #BA4D28",
"q@	c #D6592F",
"r@	c #D5592F",
"s@	c #E78E5C",
"t@	c #DE723F",
"u@	c #7A3117",
"v@	c #C87B50",
"w@	c #FDBB83",
"x@	c #F8956C",
"y@	c #E4E4F1",
"z@	c #E7E7F3",
"A@	c #C7C7D0",
"B@	c #9D7373",
"C@	c #E29E6C",
"D@	c #FFA970",
"E@	c #E36432",
"F@	c #C14D25",
"G@	c #682A14",
"H@	c #6A2B15",
"I@	c #9B4021",
"J@	c #A54321",
"K@	c #DC713E",
"L@	c #8F391C",
"M@	c #F8B47D",
"N@	c #F99E74",
"O@	c #E6E6F3",
"P@	c #D0ABA0",
"Q@	c #F8B67F",
"R@	c #FFB980",
"S@	c #F88851",
"T@	c #CA5328",
"U@	c #A34120",
"V@	c #8C381B",
"W@	c #BC6F47",
"X@	c #FF9458",
"Y@	c #B74F28",
"Z@	c #8B371B",
"`@	c #F7B47D",
" #	c #F9A67C",
".#	c #AA92A1",
"+#	c #C67E53",
"@#	c #FF8F57",
"##	c #E8723F",
"$#	c #8F4831",
"%#	c #7F5046",
"&#	c #815146",
"*#	c #713827",
"=#	c #742F17",
"-#	c #C37248",
";#	c #AC4521",
">#	c #85351A",
",#	c #AC4F2B",
"'#	c #F2AC76",
")#	c #FFB67D",
"!#	c #FF9C61",
"~#	c #C8C8D0",
"{#	c #AC94A1",
"]#	c #C67F53",
"^#	c #FFB57C",
"/#	c #E39371",
"(#	c #C9B9C9",
"_#	c #CDCDE5",
":#	c #AD99A3",
"<#	c #994A2F",
"[#	c #AF704A",
"}#	c #CE7C50",
"|#	c #FF975B",
"1#	c #C28C82",
"2#	c #84574C",
"3#	c #8C381C",
"4#	c #C56138",
"5#	c #F39D69",
"6#	c #FFA873",
"7#	c #FFA66F",
"8#	c #F5B393",
"9#	c #E9E9F4",
"0#	c #CACAD1",
"a#	c #BFBFDE",
"b#	c #B598A4",
"c#	c #B0542F",
"d#	c #F1AA75",
"e#	c #F69E67",
"f#	c #D5B3B4",
"g#	c #CAAAB1",
"h#	c #DFA387",
"i#	c #F2A775",
"j#	c #FFAC72",
"k#	c #FF9256",
"l#	c #A58989",
"m#	c #803419",
"n#	c #924225",
"o#	c #9E4B2C",
"p#	c #A45030",
"q#	c #B15C37",
"r#	c #D7C4C6",
"s#	c #EBEBF5",
"t#	c #A592A1",
"u#	c #9B4122",
"v#	c #C95931",
"w#	c #C95A32",
"x#	c #D55F35",
"y#	c #E36539",
"z#	c #E67043",
"A#	c #F9AC76",
"B#	c #FBA169",
"C#	c #E2B3A7",
"D#	c #CEC9DF",
"E#	c #B68D88",
"F#	c #DB9464",
"G#	c #FFA166",
"H#	c #D15C30",
"I#	c #702D16",
"J#	c #772F17",
"K#	c #833419",
"L#	c #A75135",
"M#	c #DAC6CB",
"N#	c #B0A5BB",
"O#	c #78473C",
"P#	c #86381C",
"Q#	c #AB4826",
"R#	c #AB4926",
"S#	c #C1522D",
"T#	c #E26136",
"U#	c #E4663A",
"V#	c #F48853",
"W#	c #F3814A",
"X#	c #C7B1BB",
"Y#	c #A05431",
"Z#	c #E6A572",
"`#	c #FFB77D",
" $	c #FF955A",
".$	c #CF5A2E",
"+$	c #BFAFB5",
"@$	c #764131",
"#$	c #692A14",
"$$	c #793017",
"%$	c #973C1D",
"&$	c #C59890",
"*$	c #C1C1DF",
"=$	c #917072",
"-$	c #763018",
";$	c #8F3C1F",
">$	c #9F4625",
",$	c #CD673B",
"'$	c #D05A2F",
")$	c #C7AFB9",
"!$	c #A34322",
"~$	c #D86D41",
"{$	c #EC8050",
"]$	c #F29361",
"^$	c #FFAD73",
"/$	c #E8723D",
"($	c #D59C8F",
"_$	c #C3B5BC",
":$	c #6C321F",
"<$	c #6D2B15",
"[$	c #88351A",
"}$	c #A75F49",
"|$	c #DFCED3",
"1$	c #CCCCD2",
"2$	c #997C82",
"3$	c #733F31",
"4$	c #C24D26",
"5$	c #C0ADB8",
"6$	c #6E2C16",
"7$	c #AC4927",
"8$	c #D05931",
"9$	c #D75E35",
"0$	c #E56A3E",
"a$	c #FEBC83",
"b$	c #DF7448",
"c$	c #D9C2C7",
"d$	c #E2E2F0",
"e$	c #D8D3DE",
"f$	c #D8D2DC",
"g$	c #D9D2DC",
"h$	c #DCD3DD",
"i$	c #E1DCE5",
"j$	c #EEEEF7",
"k$	c #CDCDD2",
"l$	c #8B6663",
"m$	c #8C6663",
"n$	c #7E4F45",
"o$	c #A0401F",
"p$	c #BFAEB9",
"q$	c #7E341A",
"r$	c #B34C29",
"s$	c #BE512C",
"t$	c #FBA36E",
"u$	c #FFAD74",
"v$	c #EEC6B4",
"w$	c #ECECF5",
"x$	c #ECECF4",
"y$	c #B0B0B3",
"z$	c #C3C3E1",
"A$	c #C6C6E2",
"B$	c #CBCBE4",
"C$	c #BDB4C6",
"D$	c #A58E95",
"E$	c #A68E96",
"F$	c #845850",
"G$	c #943B1D",
"H$	c #712E17",
"I$	c #953E21",
"J$	c #AB5633",
"K$	c #C56C42",
"L$	c #D7AA9E",
"M$	c #EFEFF7",
"N$	c #E6E6EE",
"O$	c #C7C2D7",
"P$	c #C0B7C9",
"Q$	c #C1B8C9",
"R$	c #C3BBCB",
"S$	c #CABDCC",
"T$	c #D0CEE2",
"U$	c #A4898C",
"V$	c #713A28",
"W$	c #682C17",
"X$	c #793118",
"Y$	c #A2411F",
"Z$	c #CA9991",
"`$	c #DEDEE5",
" %	c #D0D0E8",
".%	c #977572",
"+%	c #805146",
"@%	c #7A3118",
"#%	c #A84320",
"$%	c #CD9B92",
"%%	c #D8D8DF",
"&%	c #8B8B8C",
"*%	c #C8C0CF",
"=%	c #A88E8F",
"-%	c #A98F90",
";%	c #6B311E",
">%	c #7D3820",
",%	c #CEA098",
"'%	c #DAC4C8",
")%	c #E4E4F2",
"!%	c #D7D7DD",
"~%	c #929294",
"{%	c #C1C1DC",
"]%	c #C3C3DD",
"^%	c #C7C7E2",
"/%	c #D8D8EC",
"(%	c #CABFC8",
"_%	c #C8BCC5",
":%	c #CFC3CA",
"<%	c #EDEDF4",
"[%	c #EAEAF1",
"}%	c #9C9C9E",
"|%	c #8D8D8E",
"1%	c #ACACBC",
"2%	c #B3B3C7",
"3%	c #B5B5C7",
"4%	c #B6B6C8",
"5%	c #B8B8C9",
"6%	c #B8B8CA",
"7%	c #B9B9CA",
"8%	c #BBBBCB",
"9%	c #BDBDCC",
"0%	c #BEBECC",
"a%	c #BEBECD",
"b%	c #C1C1CE",
"c%	c #C2C2CF",
"d%	c #C4C4CF",
"e%	c #C6C6D0",
"f%	c #C7C7D1",
"g%	c #CACAD2",
"h%	c #CBCBD3",
"i%	c #CCCCD4",
"j%	c #CFCFD5",
"k%	c #ABABAE",
"          . . . . . . . . . . . . . . . . . . . . . . . . . . . . . . . . . . . . . . . . . . . . . . .                 ",
"      . . . . . . . . . . . . . . . . . . . . . . . . . . . . . . . . . . . . . . . . . . . . . . . . . . .             ",
"      . . . . . . . . . . . . . . . . . . . . . . . . . . . . . . . . . . . . . . . . . . . . . . . . . . . .           ",
"  . . . . . . . . . . . . . . . . . . . . . . . . . . . . . . . . . . . . . . . . . . . . . . . . . . . . . . .         ",
"  . . . . . . . . . . . . . . . . . . . . . . . . . . . . . . . . . . . . . . . . . . . . . . . . . . . . . . . +       ",
". . . . . . . . . . . . . . . . . . . . . . . . . . . . . . . . . . . . . . . . . . . . . . . . . . . . . . . . @ #     ",
". . . . . . . . . . . . . . . . . . . . . . . . $ % & & & & & & * = . . . . . . . . . . . . . . . . . . . . . . . - #   ",
"; > , , , , ' ' ' ' ) ) ) ) ) ! ! ! ! ~ { { { ] ^ / / / / / / / / & ( _ : < [ [ [ [ } } } } | | | | | 1 1 1 2 3 3 4 #   ",
"5 6 7 7 7 8 9 9 9 0 a a a a b c c c d e e e e f g / / / / / / / / / / h i j k k k l m m m n o o o o p q q q r s s t # # ",
"7 7 7 7 8 9 9 9 0 a a a a b c c c d e e e e u v w x y / / / / / / / / z A k k k l m m m n o o o o p q q q r s s s B # # ",
"7 7 7 8 9 9 9 0 a a a C b c c c D E F e e G H I J K L M / / / N O P Q / R k k l m m m n o o o o p q q S r s s s T U # # ",
"7 7 8 9 9 9 0 a a a C b c c c V W / X Y Y Z ` I  ...+.@.#./ $.%.&.*.=.-.;.k l m m m n o o o o p q q S r s s s T >.U # # ",
"7 8 9 9 9 0 a a a a b c c c ,.'.)./ / / / / !.~.{.].^./.(./ _.:.<.[.}.|.1.l m m m n o o o o p q q q r s s s T >.>.U # # ",
"8 9 9 9 0 a a a C b c c c d 2.3./ / / / / / / / / / / / / / / 4.5.6.7.8.9.m m m n o o o o p q q S r s s s T >.>.>.U # # ",
"9 9 9 0 a a a C b c c c d 0.a.b./ / / / / / / / / / / / / / / / / / / c.d.e.f.g.h.o o o p q q S r s s s T >.>.>.>.U # # ",
"9 9 0 a a a a b c c c d e i.j./ / / / / / / / / / / / / / / / / / / / / / / k.l.m.n.o.p q q q r s s s T >.>.>.>.>.p.# # ",
"9 0 a a a C c c c c q.e e i.j./ / / / / / / / / / / / / / / / / / / / / / / / / / r.s.t.q S s s s s u.>.>.>.>.v.w.x.# # ",
"0 a a a C b c c c d e e e y.z./ / / / A./ / / / / / / / / / / / / / / / / / / / / B.C.D.S r s s s T >.>.>.>.v.E.w.x.# # ",
"a a a a b c c c q.e e e e F./ / / G.H.I.J.K./ / / / / / / / / / / / / / / / / / / B.L.M.r s s s u.>.>.>.>.>.E.w.w.x.# # ",
"a a C c c c c q.e e e e N.O./ / P.Q.R.S.T.U.V./ / / / / / / / / / / / / / / / / / B.W.X.s s s u.>.>.>.>.v.w.w.w.w.Y.# # ",
"a C b c c c q.e e e e G Z.`. +P..+++@+#+$+%+&+/ / / / / / / / / / / / / / / / / / *+=+s s s u.>.>.>.>.v.E.w.w.w.-+;+# # ",
"C b c c c q.e e e e G H >+,+'+)+!+|.~+{+]+^+/+/ / / / / / / / / / / / / / / / / / (+_+s s u.>.>.>.>.v.E.w.w.w.-+:+;+# # ",
"c c c c q.e e e e G H <+[+}+|+1+2+3+4+@+5+^+6+/ / / / / / / / / / / / / / / / / 7+8+9+s 0+a+b+c+d+e+w.w.w.w.-+:+:+;+# # ",
"c c c q.e e e e G H f+g+/ h+i+j+k+l+m+n+o+p+q+/ / / / / / / / / / / / / / / / / r+s+t+u+v+w+/ / x+y+w.w.w.-+:+:+:+z+# # ",
"c c q.e e e e G H H A+B+/ C+D+E+F+G+H+I+J+K+/ / / / / / / / / / / / / / / / / / r.L+M+N+O+/ / / / P+Q+w.-+:+:+:+R+S+# # ",
"c q.e e e e T+H H H U+/ / / V+W+X+Y+I+I+Z+/ / / / / / / / / / / / / / / / / / / / `+ @.@/ / / / / / +@-+:+:+:+R+@@S+# # ",
"q.e e e #@G H H H $@%@/ / / / &@*@I+=@-@/ / / / / / / / / / / / / / / / / / / / / / / / / / / / / / ;@:+:+:+R+@@@@S+# # ",
"e e e e G H H H $@>@,@/ / / / '@)@!@~@{@]@^@/@(@(@_@/ / / / / / / / / / / / / / :@<@/ / / / / / / / [@:+:+R+@@@@@@S+# # ",
"e e e T+H H H $@}@|@/ / / / / / / / 1@2@3@4@5@6@7@8@9@0@0@a@/ / / / / / / / / / b@c@d@/ / / / / / / [@:+R+@@@@@@@@e@# # ",
"e #@T+H H H $@}@f@g@/ / / / / / / h@i@j@$+k@l@m@n@o@p@q@r@s@/ / / / / / / / / / t@u@v@w@/ / / / / / x@R+@@@@@@y@z@A@# # ",
"e G H H H $@}@}@B@C@/ / / / / / / D@E@F@$+k@l@m@G@ .H@I@I@J@/ / / / / / / / / V+K@ .L@M@/ / / / / / N@@@@@@@y@O@z@A@# # ",
"T+H H H $@}@}@}@P@Q@/ / / / / / / R@S@T@U@k@l@m@m@l@ . . .V@W@/ / / / / / / / X@Y@ .Z@`@/ / / / / B. #@@@@@@O@z@z@A@# # ",
"H H H $@}@}@}@.#+#/ / / / / / / / / / @###$#%#&#&#*# . . .=#-#/ / / / / / / / X@;# .>#,#'#/ / R@)#!#@@@@y@z@z@z@z@~## # ",
"H H $@}@}@}@}@{#]#/ / / / / / / / / / / ^#/#(#o _#:#<#[#[#}#/ / / / / / / / / |#1#2# .3#4#5#6#]@7#8#@@y@O@z@z@z@9#0## # ",
"H $@}@}@}@}@a#b#c#d#/ / / / / / / / / / / e#f#o g#h#i#/ / / / / / / / / / / j#k#w.l# .H@m#n#o#p#q#r#y@O@z@z@z@9#s#0## # ",
"$@}@}@}@}@a#I+t#u#v#w#x#y#z#A#A#A#A#A#A#A#B#C#D#E#F#/ / / / / / / / / / / / G#H#w.l# . . .I#J#K#L#M#z@z@z@z@9#s#s#0## # ",
"}@}@}@}@a#I+I+N#O# . .P#Q#R#S#T#T#T#T#T#U#V#W#X#Y#Z#/ / / / / / / / / / / `# $.$-++$@$ .#$k@$$%$&$O@z@z@z@9#s#s#s#0## # ",
"}@}@}@a#I+I+I+*$=$ . . . . .-$;$;$;$;$;$>$,$'$)$!$~${$]$/ / / / / / / / / ^$/$($:+:+_$:$<$J#[$}$|$z@z@z@9#s#s#s#s#1$# # ",
"}@}@a#I+I+I+*$k 2$3$ . . . . . . . . . .J j+4$5$6$7$8$9$0$0$k.k.k.k.k.k.a$j#b$c$:+:+d$e$f$g$h$i$z@z@z@9#s#s#s#s#j$k$# # ",
"}@a#I+I+I+*$k k k k l$l$l$m$n$ . . . . .k@%$o$p$ . . .q$r$r$s$T#T#T#T#T#t$u$v$:+:+d$@@@@@@y@z@z@z@z@9#s#s#s#w$j$x$y$# # ",
"  I+I+I+*$z$k k k A$m m m B$C$D$D$E$F$ . . .G$p$ . . . . . .H$I$I$I$I$I$J$K$L$:+d$@@@@@@y@O@z@z@z@9#s#s#s#s#j$M$N$# # # ",
"  I+I+*$k k k k A$m m m n o o o o q O$P$Q$R$S$T$U$V$W$ . . . . . . . . .X$Y$Z$d$@@@@@@y@z@z@z@z@9#s#s#s#s#j$M$M$`$# # # ",
"    *$k k k k A$m m m B$o o o _#q q q  %s s s s u.>..%+% . . . . . . . .@%#%$%@@@@@@y@z@z@z@z@9#s#s#s#w$j$M$M$%%&%# #   ",
"      k k k A$m m m B$o o o _#q q q  %s s s s u.>.>.>.*%=%-%-%-%-%;% . .>%,%'%@@@@)%O@z@z@z@9#s#s#s#w$j$M$M$!%~%# # #   ",
"        {%]%^%m m B$o o o o q q q  %s s s s u.>.>.>.>./%w.w.w.w.-+(%_%_%:%@@@@@@y@z@z@z@z@9#s#s#s#s#j$<%[%}%|%# # # #   ",
"        # # 1%2%3%4%4%4%4%5%6%6%7%8%8%8%8%9%0%0%0%0%a%b%b%b%b%c%d%d%d%e%f%f%f%f%g%g%g%g%h%i%i%i%i%j%j%k%# # # # #       ",
"            # # # # # # # # # # # # # # # # # # # # # # # # # # # # # # # # # # # # # # # # # # # # # # # # # #         ",
"                # # # # # # # # # # # # # # # # # # # # # # # # # # # # # # # # # # # # # # # # # # # # # #             "};
