/* XPM */
static char * taskwin_xpm[] = {
"60 48 511 2",
"  	c None",
". 	c #666699",
"+ 	c #686897",
"@ 	c #808080",
"# 	c #6F6F90",
"$ 	c #7C7CAE",
"% 	c #7D7DAE",
"& 	c #7E7EAE",
"* 	c #7F7FAF",
"= 	c #8181B0",
"- 	c #8282B1",
"; 	c #8383B1",
"> 	c #8484B1",
", 	c #8585B2",
"' 	c #8686B3",
") 	c #8787B3",
"! 	c #8888B4",
"~ 	c #8989B4",
"{ 	c #8A8AB4",
"] 	c #8B8BB5",
"^ 	c #8D8DB6",
"/ 	c #8E8EB7",
"( 	c #8F8FB7",
"_ 	c #9090B7",
": 	c #8B8BA6",
"< 	c #A1A1CF",
"[ 	c #A3A3D1",
"} 	c #A4A4D1",
"| 	c #A6A6D2",
"1 	c #A8A8D3",
"2 	c #AAAAD4",
"3 	c #ACACD5",
"4 	c #AFAFD7",
"5 	c #B0B0D7",
"6 	c #B1B1D8",
"7 	c #B4B4D9",
"8 	c #B7B7DA",
"9 	c #B8B8DB",
"0 	c #B9B9DB",
"a 	c #BBBBDD",
"b 	c #BCBCDD",
"c 	c #BEBEDE",
"d 	c #C0C0DF",
"e 	c #C3C3E0",
"f 	c #C4C4E1",
"g 	c #B7B7DB",
"h 	c #A8A8D5",
"i 	c #BDBDDE",
"j 	c #CCCCE5",
"k 	c #CECEE6",
"l 	c #CFCFE7",
"m 	c #D2D2E9",
"n 	c #D3D3E9",
"o 	c #B9B9C9",
"p 	c #B6B6DA",
"q 	c #C3C3E1",
"r 	c #C2C2E0",
"s 	c #9C9CCF",
"t 	c #9999CE",
"u 	c #9595CC",
"v 	c #9A9ACE",
"w 	c #A0A0D1",
"x 	c #C7C7E3",
"y 	c #CDCDE6",
"z 	c #BABAC9",
"A 	c #ADADD5",
"B 	c #C1C1DF",
"C 	c #B4B4DA",
"D 	c #A3A3D2",
"E 	c #9494CB",
"F 	c #8E8EC6",
"G 	c #D0D0E7",
"H 	c #D4D4EA",
"I 	c #BCBCCA",
"J 	c #B9B9DC",
"K 	c #A9A9D5",
"L 	c #9898CD",
"M 	c #9191C8",
"N 	c #8989C0",
"O 	c #7C7CB3",
"P 	c #7474AA",
"Q 	c #B9B9D8",
"R 	c #D7D7EB",
"S 	c #BFBFDE",
"T 	c #9B9BCE",
"U 	c #9393CA",
"V 	c #8888C0",
"W 	c #7B7BB3",
"X 	c #7272A9",
"Y 	c #6C6CA2",
"Z 	c #66669A",
"` 	c #636395",
" .	c #B6B6D4",
"..	c #9E9ED0",
"+.	c #8F8FC6",
"@.	c #8A8AC1",
"#.	c #7F7FB6",
"$.	c #7070A7",
"%.	c #68689D",
"&.	c #656598",
"*.	c #626294",
"=.	c #5F5F8E",
"-.	c #5B5B89",
";.	c #585884",
">.	c #B6B6D1",
",.	c #A5A5D3",
"'.	c #9292C9",
").	c #7575AB",
"!.	c #6D6DA2",
"~.	c #67679B",
"{.	c #646495",
"].	c #60608F",
"^.	c #5C5C8A",
"/.	c #595985",
"(.	c #55557F",
"_.	c #515179",
":.	c #757597",
"<.	c #C5C5DD",
"[.	c #9F9FD1",
"}.	c #9797CD",
"|.	c #8181B8",
"1.	c #7575AC",
"2.	c #6E6EA3",
"3.	c #68689C",
"4.	c #646496",
"5.	c #5F5F8F",
"6.	c #4D4D74",
"7.	c #49496E",
"8.	c #464668",
"9.	c #9191AC",
"0.	c #BEBECB",
"a.	c #B2B2D8",
"b.	c #BBBBDC",
"c.	c #A2A2D2",
"d.	c #7575A8",
"e.	c #6D6D9E",
"f.	c #6A6A9A",
"g.	c #5B5B88",
"h.	c #54547D",
"i.	c #505078",
"j.	c #4C4C73",
"k.	c #49496C",
"l.	c #454567",
"m.	c #414162",
"n.	c #3E3E5C",
"o.	c #3A3A56",
"p.	c #8C8CA4",
"q.	c #D5D5EA",
"r.	c #D8D8EB",
"s.	c #DBDBED",
"t.	c #BFBFCB",
"u.	c #7A7A97",
"v.	c #6D6D98",
"w.	c #7878A6",
"x.	c #8383B4",
"y.	c #8F8FC4",
"z.	c #7A7AAB",
"A.	c #70709E",
"B.	c #6E6E9C",
"C.	c #505075",
"D.	c #404060",
"E.	c #3C3C5B",
"F.	c #393955",
"G.	c #36364F",
"H.	c #4A4A62",
"I.	c #ACACC3",
"J.	c #DADAED",
"K.	c #35354A",
"L.	c #303046",
"M.	c #3D3D58",
"N.	c #484866",
"O.	c #5C5C80",
"P.	c #6B6B95",
"Q.	c #8E8EC3",
"R.	c #8484B7",
"S.	c #7C7CAC",
"T.	c #7B7BAA",
"U.	c #7A7AA9",
"V.	c #9F9FB9",
"W.	c #B3B3C9",
"X.	c #353549",
"Y.	c #29293D",
"Z.	c #2A2A3F",
"`.	c #2B2B40",
" +	c #2D2D42",
".+	c #34344C",
"++	c #454562",
"@+	c #5D5D81",
"#+	c #8282B3",
"$+	c #8686B8",
"%+	c #8C8CC0",
"&+	c #9292C8",
"*+	c #BFBFE0",
"=+	c #CACAE5",
"-+	c #DADAEC",
";+	c #C0C0CC",
">+	c #3A3A53",
",+	c #4A4A69",
"'+	c #5D5D82",
")+	c #6B6B94",
"!+	c #7676A3",
"~+	c #8484B6",
"{+	c #9090C5",
"]+	c #8C8CC3",
"^+	c #8282B8",
"/+	c #D4D4E9",
"(+	c #DDDDEE",
"_+	c #C2C2CD",
":+	c #82829D",
"<+	c #2C2C41",
"[+	c #35354D",
"}+	c #8888BB",
"|+	c #9191C7",
"1+	c #7878AD",
"2+	c #6F6FA3",
"3+	c #656596",
"4+	c #D2D2E6",
"5+	c #DFDFEF",
"6+	c #AEAECB",
"7+	c #32324A",
"8+	c #36364E",
"9+	c #383851",
"0+	c #65658C",
"a+	c #8B8BBE",
"b+	c #9595CB",
"c+	c #8F8FC5",
"d+	c #7C7CB2",
"e+	c #6A6A9E",
"f+	c #626293",
"g+	c #5E5E8D",
"h+	c #ACACC9",
"i+	c #AFAFD8",
"j+	c #393952",
"k+	c #525273",
"l+	c #8686BD",
"m+	c #8181B7",
"n+	c #5E5E8E",
"o+	c #595987",
"p+	c #565681",
"q+	c #B1B1CB",
"r+	c #C3C3CD",
"s+	c #B0B0D8",
"t+	c #9696CD",
"u+	c #33334B",
"v+	c #7C7CAA",
"w+	c #8383BA",
"x+	c #7575A9",
"y+	c #68689B",
"z+	c #636394",
"A+	c #575782",
"B+	c #53537C",
"C+	c #4F4F76",
"D+	c #B1B1C9",
"E+	c #E1E1F0",
"F+	c #C5C5CE",
"G+	c #B1B1D9",
"H+	c #A0A0CC",
"I+	c #39394D",
"J+	c #37374C",
"K+	c #6C6C96",
"L+	c #8888BE",
"M+	c #7373A8",
"N+	c #68689A",
"O+	c #626292",
"P+	c #5E5E8C",
"Q+	c #5A5A86",
"R+	c #555580",
"S+	c #51517A",
"T+	c #83839F",
"U+	c #D8D8E9",
"V+	c #E3E3F1",
"W+	c #B5B5D9",
"X+	c #A6A6D4",
"Y+	c #A4A4CF",
"Z+	c #C8C8E3",
"`+	c #CACAE4",
" @	c #BEBEDF",
".@	c #7272A7",
"+@	c #5D5D8C",
"@@	c #4D4D73",
"#@	c #49496D",
"$@	c #8888A1",
"%@	c #A4A4D3",
"&@	c #9D9DC7",
"*@	c #ADADD7",
"=@	c #8686BC",
"-@	c #7676AA",
";@	c #67679A",
">@	c #616191",
",@	c #595986",
"'@	c #48486E",
")@	c #444467",
"!@	c #404062",
"~@	c #3D3D5C",
"{@	c #383855",
"]@	c #838399",
"^@	c #9494CA",
"/@	c #A2A2CE",
"(@	c #AEAED7",
"_@	c #9F9FD0",
":@	c #8C8CC2",
"<@	c #616192",
"[@	c #585885",
"}@	c #48486D",
"|@	c #404061",
"1@	c #3D3D5B",
"2@	c #3C3C56",
"3@	c #BFBFD1",
"4@	c #CDCDDE",
"5@	c #C7C7CF",
"6@	c #9090C7",
"7@	c #8A8AC0",
"8@	c #8686BB",
"9@	c #7373A7",
"0@	c #5A5A88",
"a@	c #4B4B71",
"b@	c #47476B",
"c@	c #434365",
"d@	c #3F3F5F",
"e@	c #595976",
"f@	c #696983",
"g@	c #66667E",
"h@	c #A6A6B9",
"i@	c #E4E4F1",
"j@	c #E7E7F3",
"k@	c #C7C7D0",
"l@	c #8484BA",
"m@	c #7474A9",
"n@	c #606090",
"o@	c #52527B",
"p@	c #4E4E75",
"q@	c #4A4A6F",
"r@	c #47476A",
"s@	c #424264",
"t@	c #3C3C5A",
"u@	c #43435C",
"v@	c #8C8CA3",
"w@	c #BCBCD0",
"x@	c #E2E2F0",
"y@	c #E6E6F3",
"z@	c #7575AA",
"A@	c #4F4F77",
"B@	c #4B4B72",
"C@	c #48486B",
"D@	c #444466",
"E@	c #414161",
"F@	c #373752",
"G@	c #8C8CA2",
"H@	c #B9B9CB",
"I@	c #7272A6",
"J@	c #5D5D8B",
"K@	c #4B4B70",
"L@	c #444465",
"M@	c #40405F",
"N@	c #3B3B59",
"O@	c #575771",
"P@	c #77778D",
"Q@	c #C8C8D0",
"R@	c #7272A5",
"S@	c #4F4F6A",
"T@	c #83839A",
"U@	c #C7C7D9",
"V@	c #E9E9F4",
"W@	c #CACAD1",
"X@	c #9090C6",
"Y@	c #6B6B9A",
"Z@	c #444464",
"`@	c #383854",
" #	c #9898AF",
".#	c #B7B7CC",
"+#	c #EBEBF5",
"@#	c #B6B6D3",
"##	c #8F8FB9",
"$#	c #8585B7",
"%#	c #8787BA",
"&#	c #8A8ABD",
"*#	c #8C8CC1",
"=#	c #7676A6",
"-#	c #4E4E74",
";#	c #40405D",
">#	c #84849B",
",#	c #CFCFE4",
"'#	c #D7D7EA",
")#	c #7C7C95",
"!#	c #2D2D43",
"~#	c #3F3F5C",
"{#	c #484868",
"]#	c #525275",
"^#	c #5C5C83",
"/#	c #696994",
"(#	c #71719E",
"_#	c #7373A1",
":#	c #7575A3",
"<#	c #7979A9",
"[#	c #8080B2",
"}#	c #8B8BC0",
"|#	c #7272A0",
"1#	c #3A3A57",
"2#	c #686882",
"3#	c #8A8AA1",
"4#	c #D8D8EC",
"5#	c #29293E",
"6#	c #2C2C42",
"7#	c #2F2F47",
"8#	c #34344E",
"9#	c #414160",
"0#	c #454566",
"a#	c #4B4B6F",
"b#	c #54547B",
"c#	c #5F5F89",
"d#	c #6A6A97",
"e#	c #6D6D9B",
"f#	c #7070A0",
"g#	c #7373A4",
"h#	c #6B6B92",
"i#	c #A1A1B7",
"j#	c #C6C6DA",
"k#	c #CCCCD2",
"l#	c #BFBFDB",
"m#	c #55556B",
"n#	c #2A2A3E",
"o#	c #2B2B41",
"p#	c #2F2F46",
"q#	c #33334C",
"r#	c #383853",
"s#	c #3C3C59",
"t#	c #4D4D72",
"u#	c #565680",
"v#	c #5A5A85",
"w#	c #5E5E8B",
"x#	c #7E7EA6",
"y#	c #EEEEF7",
"z#	c #CDCDD2",
"A#	c #C6C6E2",
"B#	c #5A5A70",
"C#	c #515178",
"D#	c #55557E",
"E#	c #76769B",
"F#	c #ECECF5",
"G#	c #EFEFF7",
"H#	c #2E2E45",
"I#	c #32324B",
"J#	c #373751",
"K#	c #3B3B57",
"L#	c #3F3F5E",
"M#	c #48486A",
"N#	c #4C4C70",
"O#	c #707091",
"P#	c #EAEAF1",
"Q#	c #9D9D9F",
"R#	c #BBBBD4",
"S#	c #343448",
"T#	c #2B2B3F",
"U#	c #2C2C40",
"V#	c #2E2E44",
"W#	c #31314A",
"X#	c #363650",
"Y#	c #424262",
"Z#	c #696987",
"`#	c #DEDEE5",
" $	c #CBCBE4",
".$	c #36364A",
"+$	c #313149",
"@$	c #35354F",
"#$	c #61617C",
"$$	c #D8D8DF",
"%$	c #8B8B8C",
"&$	c #87879E",
"*$	c #88889F",
"=$	c #8A8AA0",
"-$	c #8B8BA0",
";$	c #8B8BA1",
">$	c #49495E",
",$	c #2F2F45",
"'$	c #303047",
")$	c #5B5B72",
"!$	c #E4E4F2",
"~$	c #F0F0F7",
"{$	c #ACACAE",
"]$	c #C2C2DE",
"^$	c #D0D0E8",
"/$	c #BFBFD4",
"($	c #B6B6CA",
"_$	c #B6B6CB",
":$	c #B8B8CB",
"<$	c #BABACC",
"[$	c #C2C2D5",
"}$	c #DDDDE4",
"|$	c #959597",
"1$	c #888889",
"2$	c #9898A1",
"3$	c #B3B3C7",
"4$	c #B5B5C7",
"5$	c #B6B6C8",
"6$	c #B8B8C9",
"7$	c #B8B8CA",
"8$	c #B9B9CA",
"9$	c #BBBBCB",
"0$	c #BDBDCC",
"a$	c #BEBECC",
"b$	c #BEBECD",
"c$	c #C1C1CE",
"d$	c #C2C2CF",
"e$	c #C4C4CF",
"f$	c #C6C6D0",
"g$	c #C7C7D1",
"h$	c #CACAD2",
"i$	c #CBCBD3",
"j$	c #CCCCD4",
"k$	c #CFCFD5",
"l$	c #868687",
"            . . . . . . . . . . . . . . . . . . . . . . . . . . . . . . . . . . . . . . . . . . . . . .                 ",
"        . . . . . . . . . . . . . . . . . . . . . . . . . . . . . . . . . . . . . . . . . . . . . . . . .               ",
"      . . . . . . . . . . . . . . . . . . . . . . . . . . . . . . . . . . . . . . . . . . . . . . . . . . . .           ",
"    . . . . . . . . . . . . . . . . . . . . . . . . . . . . . . . . . . . . . . . . . . . . . . . . . . . . . .         ",
"  . . . . . . . . . . . . . . . . . . . . . . . . . . . . . . . . . . . . . . . . . . . . . . . . . . . . . . . +       ",
". . . . . . . . . . . . . . . . . . . . . . . . . . . . . . . . . . . . . . . . . . . . . . . . . . . . . . . . + @     ",
". . . . . . . . . . . . . . . . . . . . . . . . . . . . . . . . . . . . . . . . . . . . . . . . . . . . . . . . . #     ",
"$ % & & & & * * * * = = = = = - - - - ; > > > > , , , , ' ) ) ) ) ! ! ! ! ~ { { { { ] ] ] ] ^ ^ ^ ^ ^ / / / ( _ _ : @   ",
"< [ } } } | 1 1 1 2 3 3 3 3 4 5 5 5 6 7 7 7 7 8 9 9 9 0 a b b b c d d d d e f f f g h h h i j j j j k l l l m n n o @ @ ",
"} } } } | 1 1 1 2 3 3 3 3 4 5 5 5 6 7 7 7 7 p 9 9 9 0 b b b b c d d d d q f r d s t u u u v w x x y l l l m n n n z @ @ ",
"} } } | 1 1 1 2 3 3 3 A 4 5 5 5 6 7 7 7 7 8 9 9 9 0 b b b b c d d d B e g C D u u u u u u u u E F d l G m n n n H I @ @ ",
"} } | 1 1 1 2 3 3 3 A 4 5 5 5 6 7 7 7 7 8 9 9 9 0 a b b b c d d d d J K L u u u u u u u u M N O P Q G m n n n H R I @ @ ",
"} | 1 1 1 2 3 3 3 3 4 5 5 5 6 7 7 7 7 8 9 9 9 0 b b b b c d d d S a T u u u u u u E U V W X Y Z `  .m n n n H R R I @ @ ",
"| 1 1 1 2 3 3 3 A 4 5 5 5 6 7 7 7 7 8 9 9 9 0 b b b b c d d i C ..u u u u u U +.@.#.$.%.&.*.=.-.;.>.n n n H R R R I @ @ ",
"1 1 1 2 3 3 3 A 4 5 5 5 6 7 7 7 7 8 9 9 9 0 a b b b c d d 4 ,.u u u u u '.@.#.).!.~.{.].^./.(._.:.<.n n H R R R R I @ @ ",
"1 1 2 3 3 3 3 4 5 5 5 6 7 7 7 7 8 9 9 9 0 a b b b c i [.[.}.u u u E @.|.1.2.3.4.5.^./.(._.6.7.8.9.n n H R R R R R 0.@ @ ",
"1 2 3 3 3 A 5 5 5 5 a.7 7 7 7 8 9 9 9 0 b b b b.C c.u u u u u u u u u u d.e.f.g.h.i.j.k.l.m.n.o.p.n q.R R R R r.s.t.@ @ ",
"2 3 3 3 A 4 5 5 5 6 7 7 7 7 8 9 9 9 J b b b b u.v.w.x.y.u u u u u u u u u u u z.A.B.C.D.E.F.G.H.I.H R R R R r.J.s.t.@ @ ",
"3 3 3 3 4 5 5 5 a.7 7 7 7 8 9 9 9 0 a b b b c K.L.G.M.N.O.P.& Q.u u u u u u u u u u R.S.T.U.V.W.q.R R R R R J.s.s.t.@ @ ",
"3 3 A 5 5 5 5 a.7 7 7 7 8 9 9 9 0 b b b b c d X.Y.Y.Y.Y.Z.`. +.+++@+#+$+%+&+u u u u u u u u }.L L *+=+=+=+-+s.s.s.;+@ @ ",
"3 A 4 5 5 5 a.7 7 7 7 8 9 9 9 J b b b b c d d X.Y.Y.Y.Y.Y.Y.Y.Y.Y.Y. +>+,+'+)+!+~+{+u u u u u u u u u ]+^+/+s.s.(+_+@ @ ",
"A 4 5 5 5 a.7 7 7 7 8 9 9 9 J a b b b c d d d :+Y.Y.Y.Y.Y.Y.Y.Y.Y.Y.Y.Y.Y.Y.<+[+}+|+u u u u u u u u 1+2+3+4+s.(+5+_+@ @ ",
"5 5 5 5 a.7 7 7 7 8 9 9 9 0 b b b b c d d d d 6+7+Y.Y.Y.Y.Y.Y.Y.Y.Y.Y.Y.8+9+0+a+u u u u u u b+c+d+e+f+g+h+-+(+5+5+_+@ @ ",
"5 5 5 a.7 7 7 7 8 9 9 9 J b b b b c d d d B q i+P.Y.Y.Y.Y.Y.Y.Y.Y.Y.j+k+a+u u u u u u u |+l+m+. f+n+o+p+q+(+5+5+5+r+@ @ ",
"5 5 a.7 7 7 7 8 9 9 9 J b b b b c d d d B q s+t+P.Y.Y.Y.Y.Y.Y.Y.Y.u+v+u u u u u u u u w+x+y+z+g+g.A+B+C+D+5+5+5+E+F+@ @ ",
"5 a.7 7 7 7 g 9 9 9 J b b b b c d d d d f G+}.u H+q+q+p.I+I+J+u+K+}+u u u u u u '.L+M+N+O+P+Q+R+S+6.7.T+U+5+5+E+V+F+@ @ ",
"a.7 7 7 W+8 9 9 9 J b b b b c d d d B q d X+u E Y+Z+Z+`+j  @G+u u u u u u u M L+.@&.O++@/.R+_.@@#@l.D.$@5+5+E+V+V+F+@ @ ",
"7 7 7 7 8 9 9 9 J b b b b c d d d B q f %@u u &+&@Z+Z+*@*@v u u u u u u E =@-@;@>@+@,@R+S+6.'@)@!@~@{@]@5+E+V+V+V+F+@ @ ",
"7 7 7 g 9 9 9 J b b b b c d d d d q e X+u u u ^@/@(@_@u u u u u u u E :@M+N+<@+@[@(._.j.}@)@|@~@1@2@3@4@E+V+V+V+V+5@@ @ ",
"7 W+g 9 9 9 J b b b b c d d d B e g %@u u u u u u u u u u u E 6@7@8@9@*.=.0@A+B+C+a@b@c@d@e@f@g@h@5+5+E+V+V+V+i@j@k@@ @ ",
"7 8 9 9 9 J b b b b S d d d B q *@u u u u u u u u u u u u U l@m@N+n@,@R+o@p@q@r@s@d@t@u@v@w@(+5+5+5+x@V+V+V+i@y@j@k@@ @ ",
"g 9 9 9 J b b b b c d d d d q (@}.u u u u u u u u u u E 7@z@y+f+g+,@B+A@B@C@D@E@t@F@G@H@s.(+5+5+5+E+V+V+V+V+y@j@j@k@@ @ ",
"9 9 9 J b b b b S d d d B f d D u u u u u u u u u u U I@4.>@J@/.R+_.K@C@L@M@N@O@P@s.s.s.(+5+5+5+x@V+V+V+i@j@j@j@j@Q@@ @ ",
"9 9 J b b b b S d d d B q B %@u u u u u u u u u u u U R@J@Q+R+o@p@q@D@D.E.S@T@U@s.s.s.(+5+5+5+x@V+V+V+i@y@j@j@j@V@W@@ @ ",
"9 J b b b b S d d d B q f D u u u u u u u u u u u u u X@Y@B+C+K@C@Z@1@`@ #.#J.s.s.s.(+5+5+5+x@V+V+V+i@y@j@j@j@V@+#W@@ @ ",
"J b b b b S d d d B f @###$#%#&#*#c+U u u u u u u u u u =#-#r@L@M@;#>#,#'#s.s.s.s.(+5+5+5+x@V+V+V+i@j@j@j@j@V@+#+#W@@ @ ",
"b b b b S d d d B q f )#!#G.~#{#]#^#/#(#_#:#<#[#}#u u u u |#M@1#2#3#R 4#s.s.s.s.(+5+5+5+x@V+V+V+i@y@j@j@j@V@+#+#+#W@@ @ ",
"b b b S d d d B q f f )#Y.5#`.6#7#8#`@t@9#0#a#b#c#d#e#f#g#d.h#i#j#R 4#J.s.s.s.(+5+5+5+x@V+V+V+i@y@j@j@j@V@+#+#+#+#k#@ @ ",
"b b S d d d B f f f f l#m#Y.5#n#Z.o#p#q#r#s#M@0#k.t#_.u#v#w#x#R R r.s.s.s.s.(+5+5+5+x@V+V+V+i@j@j@j@j@V@+#+#+#+#y#z#@ @ ",
"b S d d d B f f f f A#Z+B#Y.5#n#n#Z.Z.6#7#q#F@s#M@L@C@t#C#D#E#R 4#s.s.s.s.(+5+5+5+x@V+V+V+i@j@j@j@j@V@+#+#+#F#y#G#z#@ @ ",
"c d d d B q f f f A#Z+Z+B#Y.5#n#n#Z.Z.Z.`.!#H#I#J#K#L#Z@M#N#O#4#s.s.s.s.(+5+5+5+x@V+V+V+i@y@j@j@j@V@+#+#+#+#y#G#P#Q#@ @ ",
"  d d B f f f f A#Z+Z+Z+R#S#Y.n#n#n#Z.T#`.`.U#<+V#W#X#1#n.Y#Z#s.s.s.s.(+5+5+5+x@V+V+V+i@j@j@j@j@V@+#+#+#+#y#G#G#`#@ @ @ ",
"    B f f f f A#Z+Z+Z+ $j .$Y.5#n#n#Z.T#T#`.`.`.<+<+V#+$@$F.#$s.s.s.(+5+5+5+x@V+V+V+i@j@j@j@j@V@+#+#+#F#y#G#G#$$%$@ @ @ ",
"    q f f f A#Z+Z+Z+ $j j v@&$*$*$*$=$-$;$;$>$`.o#<+<+ +,$'$)$s.s.(+5+5+5+x@V+V+V+!$y@j@j@j@V@+#+#+#F#y#G#G#~${$@ @ @   ",
"        ]$A#Z+Z+Z+ $j j j j l l l ^$n n n n /$($_$_$_$:$<$<$[$s.(+5+5+5+x@V+V+V+i@j@j@j@j@V@+#+#+#+#y#G#G#}$|$1$@ @ @   ",
"        2$3$3$3$4$5$5$5$5$6$7$7$8$9$9$9$9$0$a$a$a$a$b$c$c$c$c$d$e$e$e$f$g$g$g$g$h$h$h$h$i$j$j$j$j$k$k$k$k$l$@ @ @ @     ",
"            @ @ @ @ @ @ @ @ @ @ @ @ @ @ @ @ @ @ @ @ @ @ @ @ @ @ @ @ @ @ @ @ @ @ @ @ @ @ @ @ @ @ @ @ @ @ @ @ @ @ @       ",
"              @ @ @ @ @ @ @ @ @ @ @ @ @ @ @ @ @ @ @ @ @ @ @ @ @ @ @ @ @ @ @ @ @ @ @ @ @ @ @ @ @ @ @ @ @ @ @ @ @         "};
