/* XPM */
static char * subwin_xpm[] = {
"60 48 139 2",
"  	c None",
". 	c #666699",
"+ 	c #676798",
"@ 	c #686897",
"# 	c #808080",
"$ 	c #6F6F90",
"% 	c #7C7CAE",
"& 	c #7D7DAE",
"* 	c #7E7EAE",
"= 	c #7F7FAF",
"- 	c #8181B0",
"; 	c #8282B1",
"> 	c #8383B1",
", 	c #8484B1",
"' 	c #8585B2",
") 	c #8686B3",
"! 	c #8787B3",
"~ 	c #8888B4",
"{ 	c #8989B4",
"] 	c #8A8AB4",
"^ 	c #8B8BB5",
"/ 	c #8D8DB6",
"( 	c #8E8EB7",
"_ 	c #8F8FB7",
": 	c #9090B7",
"< 	c #8B8BA6",
"[ 	c #A1A1CF",
"} 	c #A3A3D1",
"| 	c #A4A4D1",
"1 	c #A6A6D2",
"2 	c #A8A8D3",
"3 	c #AAAAD4",
"4 	c #ACACD5",
"5 	c #AFAFD7",
"6 	c #B0B0D7",
"7 	c #B1B1D8",
"8 	c #B4B4D9",
"9 	c #B7B7DA",
"0 	c #B8B8DB",
"a 	c #B9B9DB",
"b 	c #BBBBDD",
"c 	c #BCBCDD",
"d 	c #BEBEDE",
"e 	c #C0C0DF",
"f 	c #C3C3E0",
"g 	c #C4C4E1",
"h 	c #C5C5E2",
"i 	c #C8C8E3",
"j 	c #CACAE4",
"k 	c #CCCCE5",
"l 	c #CECEE6",
"m 	c #CFCFE7",
"n 	c #D2D2E9",
"o 	c #D3D3E9",
"p 	c #B9B9C9",
"q 	c #B6B6DA",
"r 	c #C3C3E1",
"s 	c #BABAC9",
"t 	c #ADADD5",
"u 	c #C1C1DF",
"v 	c #D0D0E7",
"w 	c #D4D4EA",
"x 	c #BCBCCA",
"y 	c #D7D7EB",
"z 	c #BEBECB",
"A 	c #B2B2D8",
"B 	c #CECEE7",
"C 	c #D5D5EA",
"D 	c #D8D8EB",
"E 	c #DBDBED",
"F 	c #BFBFCB",
"G 	c #B9B9DC",
"H 	c #DADAED",
"I 	c #C0C0CC",
"J 	c #DDDDEE",
"K 	c #C2C2CD",
"L 	c #DFDFEF",
"M 	c #C6C6E2",
"N 	c #C3C3CD",
"O 	c #E1E1F0",
"P 	c #C5C5CE",
"Q 	c #B7B7DB",
"R 	c #E3E3F1",
"S 	c #B5B5D9",
"T 	c #C7C7CF",
"U 	c #E4E4F1",
"V 	c #E7E7F3",
"W 	c #C7C7D0",
"X 	c #BFBFDE",
"Y 	c #E2E2F0",
"Z 	c #E6E6F3",
"` 	c #C8C8D0",
" .	c #CDCDE5",
"..	c #D0D0E8",
"+.	c #D8D8EC",
"@.	c #E9E9F4",
"#.	c #CACAD1",
"$.	c #EBEBF5",
"%.	c #CCCCD2",
"&.	c #EEEEF7",
"*.	c #CDCDD2",
"=.	c #ECECF5",
"-.	c #EFEFF7",
";.	c #CBCBE4",
">.	c #EAEAF1",
",.	c #9D9D9F",
"'.	c #DEDEE5",
").	c #C1C1E0",
"!.	c #D8D8DF",
"~.	c #8B8B8C",
"{.	c #E4E4F2",
"].	c #D7D7DD",
"^.	c #929294",
"/.	c #C3C3DF",
"(.	c #C5C5E0",
"_.	c #EBEBF3",
":.	c #DDDDE3",
"<.	c #8D8D8E",
"[.	c #A4A4B1",
"}.	c #B3B3C7",
"|.	c #B5B5C7",
"1.	c #B6B6C8",
"2.	c #B8B8C9",
"3.	c #B8B8CA",
"4.	c #B9B9CA",
"5.	c #BBBBCB",
"6.	c #BDBDCC",
"7.	c #BEBECC",
"8.	c #BEBECD",
"9.	c #C1C1CE",
"0.	c #C2C2CF",
"a.	c #C4C4CF",
"b.	c #C6C6D0",
"c.	c #C7C7D1",
"d.	c #CACAD2",
"e.	c #CBCBD3",
"f.	c #CCCCD4",
"g.	c #CFCFD5",
"h.	c #98989A",
"          . . . . . . . . . . . . . . . . . . . . . . . . . . . . . . . . . . . . . . . . . . . . . . .                 ",
"      . . . . . . . . . . . . . . . . . . . . . . . . . . . . . . . . . . . . . . . . . . . . . . . . . . .             ",
"      . . . . . . . . . . . . . . . . . . . . . . . . . . . . . . . . . . . . . . . . . . . . . . . . . . . .           ",
"  . . . . . . . . . . . . . . . . . . . . . . . . . . . . . . . . . . . . . . . . . . . . . . . . . . . . . . .         ",
"  . . . . . . . . . . . . . . . . . . . . . . . . . . . . . . . . . . . . . . . . . . . . . . . . . . . . . . . +       ",
"  . . . . . . . . . . . . . . . . . . . . . . . . . . . . . . . . . . . . . . . . . . . . . . . . . . . . . . . @ #     ",
". . . . . . . . . . . . . . . . . . . . . . . . . . . . . . . . . . . . . . . . . . . . . . . . . . . . . . . . . $ #   ",
"% & * * * * = = = = - - - - - ; ; ; ; > , , , , ' ' ' ' ) ! ! ! ! ~ ~ ~ ~ { ] ] ] ] ^ ^ ^ ^ / / / / / ( ( ( _ : : < #   ",
"[ } | | | 1 2 2 2 3 4 4 4 4 5 6 6 6 7 8 8 8 8 9 0 0 0 a b c c c d e e e e f g g g h i i i j k k k k l m m m n o o p # # ",
"| | | | 1 2 2 2 3 4 4 4 4 5 6 6 6 7 8 8 8 8 q 0 0 0 a c c c c d e e e e r g g g h i i i j k k k k l m m m n o o o s # # ",
"| | | 1 2 2 2 3 4 4 4 t 5 6 6 6 7 8 8 8 8 9 0 0 0 a c c c c d e e e u f g g g h i i i j k k k k l m m v n o o o w x # # ",
"| | 1 2 2 2 3 4 4 4 t 5 6 6 6 7 8 8 8 8 9 0 0 0 a b c c c d e e e e f g g g h i i i j k k k k l m m v n o o o w y x # # ",
"| 1 2 2 2 3 4 4 4 4 5 6 6 6 7 8 8 8 8 9 0 0 0 a c c c c d e e e e r g g g h i i i j k k k k l m m m n o o o w y y x # # ",
"1 2 2 2 3 4 4 4 t 5 6 6 6 7 8 8 8 8 9 0 0 0 a c c c c d e e e u r g g g h i i i j k k k k l m m v n o o o w y y y x # # ",
"2 2 2 3 4 4 4 t 5 6 6 6 7 8 8 8 8 9 0 0 0 a b c c c d e e e e f g g g h i i i j k k k k l m m v n o o o w y y y y x # # ",
"2 2 3 4 4 4 4 5 6 6 6 7 8 8 8 8 9 0 0 0 a b c c c d e e e e r g g g h i i i j k k k k l m m m n o o o w y y y y y z # # ",
"2 3 4 4 4 t 6 6 6 6 A 8 8 8 8 9 0 0 0 a c c c c d e e e u r g g g h i i i j k k k k B m m v o o o o C y y y y D E F # # ",
"3 4 4 4 t 5 6 6 6 7 8 8 8 8 9 0 0 0 G c c c c d e e e u r g g g h i i i j k k k k l m m v n o o o w y y y y D H E F # # ",
"4 4 4 4 5 6 6 6 A 8 8 8 8 9 0 0 0 a b c c c d e e e e r g g g h i i i j k k k k B m m m n o o o C y y y y y H E E F # # ",
"4 4 t 6 6 6 6 A 8 8 8 8 9 0 0 0 a c c c c d e e e e r g g g h i i i j k k k k B m m v o o o o C y y y y D E E E E I # # ",
"4 t 5 6 6 6 A 8 8 8 8 9 0 0 0 G c c c c d e e e u r g g g h i i i j k k k k l m m v n o o o C y y y y D H E E E J K # # ",
"t 5 6 6 6 A 8 8 8 8 9 0 0 0 G b c c c d e e e e r g g g h i i i j k k k k B m m v n o o o C y y y y D H E E E J L K # # ",
"6 6 6 6 A 8 8 8 8 9 0 0 0 a c c c c d e e e e r g g g M i i i j k k k k B m m m o o o o C y y y y y E E E E J L L K # # ",
"6 6 6 A 8 8 8 8 9 0 0 0 G c c c c d e e e u r g g g h i i i j k k k k B m m v n o o o C y y y y D H E E E J L L L N # # ",
"6 6 A 8 8 8 8 9 0 0 0 G c c c c d e e e u r g g g M i i i j k k k k B m m v n o o o C y y y y D H E E E J L L L O P # # ",
"6 A 8 8 8 8 Q 0 0 0 G c c c c d e e e e g g g g M i i i j k k k k B m m v o o o o C y y y y D E E E E J L L L O R P # # ",
"A 8 8 8 S 9 0 0 0 G c c c c d e e e u r g g g M i i i j k k k k B m m v o o o o C y y y y D E E E E J L L L O R R P # # ",
"8 8 8 8 9 0 0 0 G c c c c d e e e u r g g g M i i i j k k k k B m m v n o o o C y y y y D H E E E J L L L O R R R P # # ",
"8 8 8 Q 0 0 0 G c c c c d e e e e r g g g M i i i j k k k k m m m v o o o o C y y y y D E E E E J L L L O R R R R T # # ",
"8 S Q 0 0 0 G c c c c d e e e u g g g g M i i i j k k k k m m m v o o o o C y y y y D E E E E J L L L O R R R U V W # # ",
"8 9 0 0 0 G c c c c X e e e u r g g g M i i i j k k k k B m m v n o o o C y y y y D H E E E J L L L Y R R R U Z V W # # ",
"Q 0 0 0 G c c c c d e e e e r g g g M i i i j k k k k m m m v n o o o C y y y y D H E E E J L L L O R R R R Z V V W # # ",
"0 0 0 G c c c c X e e e u g g g g M i i i j k k k k m m m v o o o o C y y y y D E E E E J L L L Y R R R U V V V V ` # # ",
"0 0 G c c c c X e e e u r g g g M i i i j k k k  .B m m ..o o o o C y y y y +.E E E E J L L L Y R R R U Z V V V @.#.# # ",
"0 G c c c c X e e e u r g g g M i i i j k k k k B m m v n o o o C y y y y D H E E E J L L L Y R R R U Z V V V @.$.#.# # ",
"G c c c c X e e e u g g g g M i i i j k k k k m m m v o o o o C y y y y D E E E E J L L L Y R R R U V V V V @.$.$.#.# # ",
"c c c c X e e e u r g g g M i i i j k k k  .B m m ..o o o o C y y y y +.E E E E J L L L Y R R R U Z V V V @.$.$.$.#.# # ",
"c c c X e e e u r g g g M i i i j k k k k B m m ..n o o o C y y y y +.H E E E J L L L Y R R R U Z V V V @.$.$.$.$.%.# # ",
"c c X e e e u g g g g M i i i j k k k k m m m v o o o o C y y y y D E E E E J L L L Y R R R U V V V V @.$.$.$.$.&.*.# # ",
"c X e e e u g g g g M i i i j k k k  .m m m ..o o o o C y y y y +.E E E E J L L L Y R R R U V V V V @.$.$.$.=.&.-.*.# # ",
"d e e e u r g g g M i i i ;.k k k  .B m m ..o o o o C y y y y +.E E E E J L L L Y R R R U Z V V V @.$.$.$.$.&.-.>.,.# # ",
"  e e u g g g g M i i i j k k k k m m m ..o o o o C y y y y +.E E E E J L L L Y R R R U V V V V @.$.$.$.$.&.-.-.'.# # # ",
"    ).g g g g M i i i ;.k k k  .m m m ..o o o o C y y y y +.E E E E J L L L Y R R R U V V V V @.$.$.$.=.&.-.-.!.~.# # # ",
"      g g g M i i i ;.k k k  .m m m ..o o o o C y y y y +.E E E E J L L L Y R R R {.Z V V V @.$.$.$.=.&.-.-.].^.# # #   ",
"        /.(.i i i ;.k k k k m m m ..o o o o C y y y y +.E E E E J L L L Y R R R U V V V V @.$.$.$.$.&.-._.:.<.# # # #   ",
"          [.}.}.|.1.1.1.1.2.3.3.4.5.5.5.5.6.7.7.7.7.8.9.9.9.9.0.a.a.a.b.c.c.c.c.d.d.d.d.e.f.f.f.f.g.g.g.h.# # # #       ",
"            # # # # # # # # # # # # # # # # # # # # # # # # # # # # # # # # # # # # # # # # # # # # # # # # # # #       ",
"                # # # # # # # # # # # # # # # # # # # # # # # # # # # # # # # # # # # # # # # # # # # # # # #           "};
