/* XPM */
static char * pycon_xpm[] = {
"60 48 577 2",
"  	c None",
". 	c #666699",
"+ 	c #676798",
"@ 	c #686897",
"# 	c #808080",
"$ 	c #6F6F90",
"% 	c #7C7CAE",
"& 	c #7D7DAE",
"* 	c #7E7EAE",
"= 	c #7F7FAF",
"- 	c #8080AF",
"; 	c #8181B0",
"> 	c #8282B1",
", 	c #8383B1",
"' 	c #8484B1",
") 	c #8585B2",
"! 	c #8686B3",
"~ 	c #8787B3",
"{ 	c #8888B4",
"] 	c #8989B4",
"^ 	c #8A8AB4",
"/ 	c #8B8BB5",
"( 	c #8D8DB6",
"_ 	c #8E8EB7",
": 	c #8F8FB7",
"< 	c #9090B7",
"[ 	c #8B8BA6",
"} 	c #A0A0CF",
"| 	c #A1A1D0",
"1 	c #A4A4D1",
"2 	c #A6A6D2",
"3 	c #A8A8D3",
"4 	c #A9A9D3",
"5 	c #ABABD5",
"6 	c #ACACD5",
"7 	c #AFAFD7",
"8 	c #B0B0D7",
"9 	c #B1B1D8",
"0 	c #B4B4D9",
"a 	c #B7B7DA",
"b 	c #B8B8DB",
"c 	c #B9B9DB",
"d 	c #BBBBDD",
"e 	c #BCBCDD",
"f 	c #BEBEDE",
"g 	c #C0C0DF",
"h 	c #C3C3E0",
"i 	c #C4C4E1",
"j 	c #C5C5E2",
"k 	c #C8C8E3",
"l 	c #CACAE4",
"m 	c #CCCCE5",
"n 	c #CECEE6",
"o 	c #CFCFE7",
"p 	c #D2D2E9",
"q 	c #D3D3E9",
"r 	c #B9B9C9",
"s 	c #B6B6DA",
"t 	c #C3C3E1",
"u 	c #BABAC9",
"v 	c #ADADD5",
"w 	c #C1C1DF",
"x 	c #D0D0E7",
"y 	c #D4D4EA",
"z 	c #BCBCCA",
"A 	c #D7D7EB",
"B 	c #A7A7D2",
"C 	c #BEBECB",
"D 	c #B2B2D8",
"E 	c #CECEE7",
"F 	c #D5D5EA",
"G 	c #D8D8EB",
"H 	c #DBDBED",
"I 	c #BFBFCB",
"J 	c #B9B9DC",
"K 	c #DADAED",
"L 	c #C49FB0",
"M 	c #C7A0AE",
"N 	c #CBB1C1",
"O 	c #D2A6AD",
"P 	c #C2BDDA",
"Q 	c #D3C3D4",
"R 	c #DFACAB",
"S 	c #D2C9DC",
"T 	c #B6ADCF",
"U 	c #E18475",
"V 	c #FC6838",
"W 	c #CF7E72",
"X 	c #BBA9C3",
"Y 	c #B7B6D8",
"Z 	c #C2BEDB",
"` 	c #DF958D",
" .	c #FD6938",
"..	c #DD7960",
"+.	c #CAB4C5",
"@.	c #C5C2DD",
"#.	c #E0A9A7",
"$.	c #E57555",
"%.	c #D8B9C0",
"&.	c #D3D0E4",
"*.	c #C0C0CC",
"=.	c #C2A5B9",
"-.	c #F27350",
";.	c #FF6633",
">.	c #FB6534",
",.	c #E67456",
"'.	c #C7979E",
").	c #B9B6D7",
"!.	c #C6B7CE",
"~.	c #F17B5A",
"{.	c #FE6633",
"].	c #EB714D",
"^.	c #D39B9A",
"/.	c #C7BED6",
"(.	c #F18466",
"_.	c #F06C42",
":.	c #DFA097",
"<.	c #D3C6D5",
"[.	c #DDDDEE",
"}.	c #C2C2CD",
"|.	c #B5B3D7",
"1.	c #D19699",
"2.	c #FD6837",
"3.	c #F26B41",
"4.	c #D0857C",
"5.	c #BCB3D0",
"6.	c #D0A9B4",
"7.	c #FD6939",
"8.	c #F56B3E",
"9.	c #DC806B",
"0.	c #CBBFD4",
"a.	c #D4C4D4",
"b.	c #FD6A3A",
"c.	c #F96A3C",
"d.	c #E48166",
"e.	c #D9C1CA",
"f.	c #DFDFEF",
"g.	c #B8B0D1",
"h.	c #EA7C62",
"i.	c #FB6736",
"j.	c #E57659",
"k.	c #C5A0AC",
"l.	c #BDB9D8",
"m.	c #E78A76",
"n.	c #FD6634",
"o.	c #ED7450",
"p.	c #D1A4A6",
"q.	c #CDC7DC",
"r.	c #E59F95",
"s.	c #F46F45",
"t.	c #DAA49F",
"u.	c #D8CFDF",
"v.	c #D8D7EB",
"w.	c #C1A6BB",
"x.	c #F0673B",
"y.	c #D69088",
"z.	c #C0B3CB",
"A.	c #C9BAD0",
"B.	c #F97045",
"C.	c #F4673A",
"D.	c #E08D7C",
"E.	c #CEBAC9",
"F.	c #D3C8DA",
"G.	c #F47F5D",
"H.	c #F86738",
"I.	c #E68971",
"J.	c #DCBEC3",
"K.	c #C3C3CD",
"L.	c #C2A4B8",
"M.	c #EC6941",
"N.	c #F96636",
"O.	c #E17F68",
"P.	c #C6A7B5",
"Q.	c #C1BFDE",
"R.	c #CBB9CC",
"S.	c #E7714F",
"T.	c #FB6533",
"U.	c #EA7D5F",
"V.	c #D1AAAD",
"W.	c #D0CEE4",
"X.	c #D7C8D8",
"Y.	c #E58267",
"Z.	c #FC6533",
"`.	c #F27853",
" +	c #DAAAA5",
".+	c #DCD9E9",
"++	c #E1E1F0",
"@+	c #C5C5CE",
"#+	c #B7B5D6",
"$+	c #A78B99",
"%+	c #BB5D43",
"&+	c #F16233",
"*+	c #FD6635",
"=+	c #EF6C43",
"-+	c #CD9290",
";+	c #C0C0DD",
">+	c #C4C3E0",
",+	c #B5A2B0",
"'+	c #B25F48",
")+	c #EE6235",
"!+	c #FE6634",
"~+	c #F36B40",
"{+	c #DA9386",
"]+	c #CCC5D9",
"^+	c #D3D2E8",
"/+	c #CABECD",
"(+	c #AA614E",
"_+	c #EB6336",
":+	c #F66B3E",
"<+	c #E3907B",
"[+	c #DACDD7",
"}+	c #E3E3F1",
"|+	c #B5B5D9",
"1+	c #A7A4C2",
"2+	c #A47372",
"3+	c #D9603A",
"4+	c #F96332",
"5+	c #B14827",
"6+	c #86869A",
"7+	c #C6C6E2",
"8+	c #BAB8D0",
"9+	c #A88181",
"0+	c #CF6242",
"a+	c #F76331",
"b+	c #C14F29",
"c+	c #887A81",
"d+	c #CCCBDE",
"e+	c #B09192",
"f+	c #C9674A",
"g+	c #F36232",
"h+	c #D0542C",
"i+	c #8A6F6C",
"j+	c #D8D8E8",
"k+	c #B8B8D9",
"l+	c #A38995",
"m+	c #BA6551",
"n+	c #EC6031",
"o+	c #F96432",
"p+	c #582311",
"q+	c #7A7A8B",
"r+	c #C5C5E0",
"s+	c #AE9DAA",
"t+	c #BC705E",
"u+	c #E35D30",
"v+	c #FB6432",
"w+	c #773018",
"x+	c #69656E",
"y+	c #D5D5E8",
"z+	c #BCB0BC",
"A+	c #BD7C6E",
"B+	c #DB5B30",
"C+	c #FD6532",
"D+	c #963C1E",
"E+	c #5B5356",
"F+	c #D9D9E7",
"G+	c #B7B7DB",
"H+	c #BABADA",
"I+	c #B3A8C1",
"J+	c #A9716C",
"K+	c #F66434",
"L+	c #CC5229",
"M+	c #311A14",
"N+	c #B8B8D3",
"O+	c #CBCBE4",
"P+	c #C2BACD",
"Q+	c #B2827E",
"R+	c #E86439",
"S+	c #DB572C",
"T+	c #482317",
"U+	c #A7A7B9",
"V+	c #CEC9D9",
"W+	c #BE9693",
"X+	c #DD643E",
"Y+	c #E95D2F",
"Z+	c #5F2A1A",
"`+	c #95959E",
" @	c #E2E2EF",
".@	c #C7C7CF",
"+@	c #C1B6D1",
"@@	c #CEA5B0",
"#@	c #E38C7D",
"$@	c #F96E44",
"%@	c #84351A",
"&@	c #58535D",
"*@	c #CFC6DB",
"=@	c #D7B6BF",
"-@	c #E79788",
";@	c #F8744B",
">@	c #FF6634",
",@	c #FD6533",
"'@	c #A34121",
")@	c #534A4E",
"!@	c #C4C4D8",
"~@	c #D9D2E3",
"{@	c #DEC3CA",
"]@	c #EBA598",
"^@	c #F97A53",
"/@	c #FF6735",
"(@	c #C34E27",
"_@	c #4B3F3E",
":@	c #C2C2CE",
"<@	c #E4E4F1",
"[@	c #E7E7F3",
"}@	c #C7C7D0",
"|@	c #BCBBDC",
"1@	c #C2B3CC",
"2@	c #D49D9F",
"3@	c #E68672",
"4@	c #F96E42",
"5@	c #F36131",
"6@	c #A74322",
"7@	c #3E1E15",
"8@	c #8E8EA2",
"9@	c #CDC4D9",
"0@	c #DDABAB",
"a@	c #EB8F7B",
"b@	c #F8744C",
"c@	c #B74925",
"d@	c #4D2316",
"e@	c #7C7C89",
"f@	c #D2D2E6",
"g@	c #D8D4E6",
"h@	c #E3B6B5",
"i@	c #ED9783",
"j@	c #F87A54",
"k@	c #FA6432",
"l@	c #CC5129",
"m@	c #5C2816",
"n@	c #6A6A70",
"o@	c #DCDCEA",
"p@	c #E6E6F3",
"q@	c #C1B5D0",
"r@	c #D99794",
"s@	c #F07857",
"t@	c #FA6C40",
"u@	c #FF6734",
"v@	c #F66231",
"w@	c #B24724",
"x@	c #4B1E10",
"y@	c #352626",
"z@	c #727180",
"A@	c #BCBCD5",
"B@	c #CBC2D9",
"C@	c #DCA6A5",
"D@	c #F28060",
"E@	c #FA6F43",
"F@	c #FE6735",
"G@	c #BF4C26",
"H@	c #5A2412",
"I@	c #32201D",
"J@	c #6E6C76",
"K@	c #BFBFD2",
"L@	c #D9D3E4",
"M@	c #E3B5B3",
"N@	c #F28A6E",
"O@	c #FB7246",
"P@	c #FE6836",
"Q@	c #662914",
"R@	c #301811",
"S@	c #6B686D",
"T@	c #C8A7B6",
"U@	c #E48978",
"V@	c #FA6D40",
"W@	c #DA572C",
"X@	c #933C1F",
"Y@	c #3C221D",
"Z@	c #35343B",
"`@	c #7E7E90",
" #	c #C2C2DD",
".#	c #D0B9C8",
"+#	c #E69283",
"@#	c #F97146",
"##	c #DF592C",
"$#	c #A84322",
"%#	c #43241C",
"&#	c #333237",
"*#	c #777784",
"=#	c #C9C9DD",
"-#	c #DCC9D5",
";#	c #E9A498",
">#	c #F9764D",
",#	c #FC6532",
"'#	c #E35B2D",
")#	c #B04723",
"!#	c #57291B",
"~#	c #313033",
"{#	c #74747C",
"]#	c #CCCCD9",
"^#	c #C8C8D0",
"/#	c #BFB3CE",
"(#	c #F5734D",
"_#	c #C44F27",
":#	c #7F331A",
"<#	c #482820",
"[#	c #4C4A55",
"}#	c #848497",
"|#	c #B6B6D0",
"1#	c #CBC2D8",
"2#	c #EF8266",
"3#	c #D4552A",
"4#	c #88371B",
"5#	c #4E291E",
"6#	c #484349",
"7#	c #868694",
"8#	c #BEBED2",
"9#	c #EF947E",
"0#	c #DE592D",
"a#	c #953C1E",
"b#	c #54291B",
"c#	c #494243",
"d#	c #7E7E87",
"e#	c #C5C5D2",
"f#	c #E2E2F0",
"g#	c #E9E9F4",
"h#	c #CACAD1",
"i#	c #D39DA1",
"j#	c #FC6939",
"k#	c #CD5229",
"l#	c #6C2B16",
"m#	c #351E18",
"n#	c #595560",
"o#	c #9090A5",
"p#	c #B6B6D1",
"q#	c #D7ADB3",
"r#	c #F97147",
"s#	c #D8562B",
"t#	c #793018",
"u#	c #391B12",
"v#	c #565058",
"w#	c #9494A4",
"x#	c #BDBDD1",
"y#	c #DFC1C7",
"z#	c #F77B56",
"A#	c #85351A",
"B#	c #3E1A0F",
"C#	c #50484A",
"D#	c #9696A1",
"E#	c #C4C4D1",
"F#	c #DFDFEE",
"G#	c #EBEBF5",
"H#	c #BFB8D5",
"I#	c #EA8169",
"J#	c #FB6532",
"K#	c #E85D2E",
"L#	c #B94A25",
"M#	c #54271A",
"N#	c #2E2629",
"O#	c #5D5C69",
"P#	c #B0B0CA",
"Q#	c #C4C4E0",
"R#	c #CAC5DE",
"S#	c #E69282",
"T#	c #FE6736",
"U#	c #EC5E2F",
"V#	c #C54F27",
"W#	c #652D1A",
"X#	c #2F2526",
"Y#	c #5A5862",
"Z#	c #ADADC0",
"`#	c #CECEE4",
" $	c #D2D2E8",
".$	c #D8D5E8",
"+$	c #E8A79D",
"@$	c #FE6937",
"#$	c #EF6030",
"$$	c #CB5129",
"%$	c #7B331C",
"&$	c #2F2423",
"*$	c #57555A",
"=$	c #ADACB9",
"-$	c #D7D7E7",
";$	c #DEDEEE",
">$	c #CCA7B4",
",$	c #F5734C",
"'$	c #DC582C",
")$	c #993D1F",
"!$	c #57281A",
"~$	c #3C363C",
"{$	c #6D6D7E",
"]$	c #A7A7C2",
"^$	c #C2C2DF",
"/$	c #D3BAC8",
"($	c #F47C5A",
"_$	c #A24120",
":$	c #5F2B1A",
"<$	c #3E3435",
"[$	c #6A6A76",
"}$	c #ACACC0",
"|$	c #CECEE5",
"1$	c #DACEDC",
"2$	c #F38769",
"3$	c #ED5F2F",
"4$	c #B34824",
"5$	c #672D19",
"6$	c #423331",
"7$	c #616068",
"8$	c #B1B1BE",
"9$	c #DCDCEB",
"0$	c #BDBBDB",
"a$	c #D39EA3",
"b$	c #AA5A47",
"c$	c #441F15",
"d$	c #473F45",
"e$	c #7A7A8E",
"f$	c #A6A6C1",
"g$	c #CBCAE3",
"h$	c #D9B3B9",
"i$	c #BC6751",
"j$	c #512416",
"k$	c #453B3D",
"l$	c #7C7C8A",
"m$	c #ADADC1",
"n$	c #CCCCE4",
"o$	c #D0D0E8",
"p$	c #DDC6CF",
"q$	c #CD745B",
"r$	c #5F2D1E",
"s$	c #42312F",
"t$	c #7B7B85",
"u$	c #B2B2C0",
"v$	c #D6D6E6",
"w$	c #CCCCD2",
"x$	c #B8B3D0",
"y$	c #757081",
"z$	c #9493AB",
"A$	c #B6B6D3",
"B$	c #BEBEDD",
"C$	c #C9C5DB",
"D$	c #8C8694",
"E$	c #8F8E9F",
"F$	c #C3C3D9",
"G$	c #D6D4E6",
"H$	c #A59FA9",
"I$	c #8E8D99",
"J$	c #C7C7D7",
"K$	c #D7D7E9",
"L$	c #EEEEF7",
"M$	c #CDCDD2",
"N$	c #BFBFDE",
"O$	c #CDCDE5",
"P$	c #D8D8EC",
"Q$	c #ECECF5",
"R$	c #EFEFF7",
"S$	c #EAEAF1",
"T$	c #9D9D9F",
"U$	c #DEDEE5",
"V$	c #C1C1E0",
"W$	c #D8D8DF",
"X$	c #8B8B8C",
"Y$	c #E4E4F2",
"Z$	c #D7D7DD",
"`$	c #929294",
" %	c #C3C3DF",
".%	c #EBEBF3",
"+%	c #DDDDE3",
"@%	c #8D8D8E",
"#%	c #A4A4B1",
"$%	c #B3B3C7",
"%%	c #B5B5C7",
"&%	c #B6B6C8",
"*%	c #B8B8C9",
"=%	c #B8B8CA",
"-%	c #B9B9CA",
";%	c #BBBBCB",
">%	c #BDBDCC",
",%	c #BEBECC",
"'%	c #BEBECD",
")%	c #C1C1CE",
"!%	c #C2C2CF",
"~%	c #C4C4CF",
"{%	c #C6C6D0",
"]%	c #C7C7D1",
"^%	c #CACAD2",
"/%	c #CBCBD3",
"(%	c #CCCCD4",
"_%	c #CFCFD5",
":%	c #98989A",
"          . . . . . . . . . . . . . . . . . . . . . . . . . . . . . . . . . . . . . . . . . . . . . . .                 ",
"      . . . . . . . . . . . . . . . . . . . . . . . . . . . . . . . . . . . . . . . . . . . . . . . . . . .             ",
"      . . . . . . . . . . . . . . . . . . . . . . . . . . . . . . . . . . . . . . . . . . . . . . . . . . . .           ",
"  . . . . . . . . . . . . . . . . . . . . . . . . . . . . . . . . . . . . . . . . . . . . . . . . . . . . . . .         ",
"  . . . . . . . . . . . . . . . . . . . . . . . . . . . . . . . . . . . . . . . . . . . . . . . . . . . . . . . +       ",
"  . . . . . . . . . . . . . . . . . . . . . . . . . . . . . . . . . . . . . . . . . . . . . . . . . . . . . . . @ #     ",
". . . . . . . . . . . . . . . . . . . . . . . . . . . . . . . . . . . . . . . . . . . . . . . . . . . . . . . . . $ #   ",
"% % & * * * * = = = = - ; ; ; > > > > , ' ' ' ' ) ) ) ) ! ~ ~ ~ ~ { { { { ] ^ ^ ^ ^ / / / / ( ( ( ( ( _ _ _ : < < [ #   ",
"} | 1 1 1 1 2 3 3 3 4 5 6 6 7 8 8 8 9 0 0 0 0 a b b b c d e e e f g g g g h i i i j k k k l m m m m n o o o p q q r # # ",
"| 1 1 1 1 2 3 3 3 3 6 6 6 7 8 8 8 9 0 0 0 0 s b b b c e e e e f g g g g t i i i j k k k l m m m m n o o o p q q q u # # ",
"1 1 1 1 2 3 3 3 4 5 6 v 7 8 8 8 9 0 0 0 0 a b b b c e e e e f g g g w h i i i j k k k l m m m m n o o x p q q q y z # # ",
"1 1 1 2 3 3 3 4 5 6 v 7 8 8 8 9 0 0 0 0 a b b b c d e e e f g g g g h i i i j k k k l m m m m n o o x p q q q y A z # # ",
"1 1 2 3 3 3 3 5 6 6 7 8 8 8 9 0 0 0 0 a b b b c e e e e f g g g g t i i i j k k k l m m m m n o o o p q q q y A A z # # ",
"1 2 3 3 3 4 6 6 v 7 8 8 8 9 0 0 0 0 a b b b c e e e e f g g g w t i i i j k k k l m m m m n o o x p q q q y A A A z # # ",
"B 3 3 3 4 5 6 v 7 8 8 8 9 0 0 0 0 a b b b c d e e e f g g g g h i i i j k k k l m m m m n o o x p q q q y A A A A z # # ",
"3 3 3 3 5 6 6 7 8 8 8 9 0 0 0 0 a b b b c d e e e f g g g g t i i i j k k k l m m m m n o o o p q q q y A A A A A C # # ",
"3 3 4 6 6 v 8 8 8 8 D 0 0 0 0 a b b b c e e e e f g g g w t i i i j k k k l m m m m E o o x q q q q F A A A A G H I # # ",
"3 4 5 6 v 7 8 8 8 9 0 0 0 0 a b b b J e e e e f g g g w t i i i j k k k l m m m m n o o x p q q q y A A A A G K H I # # ",
"4 5 6 6 7 8 8 8 L M 0 0 0 a b b b c d e e e f g N O P t i i i j k k k l m m m m Q R S o p q q q F A A A A A K H H I # # ",
"6 6 v 8 8 8 8 T U V W X Y b b b c e e e e f g Z `  ...+.@.i j k k k l m m m m E #. .$.%.&.q q F A A A A G H H H H *.# # ",
"6 v 7 8 8 8 D =.-.;.>.,.'.).b J e e e e f g g !.~.;.{.].^./.k k k l m m m m n o (.;.;._.:.<.F A A A A G K H H H [.}.# # ",
"v 7 8 8 8 D |.1.2.;.;.{.3.4.5.d e e e f g g g 6.7.;.;.;.8.9.0.k l m m m m E o a.b.;.;.;.c.d.e.A A A G K H H H [.f.}.# # ",
"8 8 8 8 D 0 g.h.;.;.;.;.;.i.j.k.l.e f g g g g m.;.;.;.;.;.n.o.p.q.m m m E o o r.;.;.;.;.;.n.s.t.u.v.H H H H [.f.f.}.# # ",
"8 8 8 D 0 0 w.V ;.;.;.;.;.;.;.x.y.z.g g g w A.B.;.;.;.;.;.;.;.C.D.E.m E o o F.G.;.;.;.;.;.;.;.H.I.J.H H H [.f.f.f.K.# # ",
"8 8 D 0 0 0 L.M.;.;.;.;.;.;.;.;.N.O.P.Q.w t R.S.;.;.;.;.;.;.;.;.T.U.V.W.o x X.Y.;.;.;.;.;.;.;.;.Z.`. +.+[.f.f.f.++@+# # ",
"8 D 0 0 0 0 #+$+%+&+;.;.;.;.;.;.;.*+=+-+;+i >+,+'+)+{.;.;.;.;.;.;.!+~+{+]+q ^+/+(+_+Z.;.;.;.;.;.;.;.:+<+[+f.f.++}+@+# # ",
"D 0 0 0 |+a b b 1+2+3+4+;.;.;.;.;.;.;.5+6+i i 7+8+9+0+a+;.;.;.;.;.;.;.b+c+q q q d+e+f+g+;.;.;.;.;.;.;.h+i+j+++}+}+@+# # ",
"0 0 0 0 a b b b J k+l+m+n+;.;.;.;.;.o+p+q+i 7+k k r+s+t+u+;.;.;.;.;.v+w+x+q q F A y+z+A+B+{.;.;.;.;.C+D+E+F+}+}+}+@+# # ",
"0 0 0 G+b b b J e e H+I+J+K+;.;.;.;.L+M+N+7+k k k l O+P+Q+R+;.;.;.;.S+T+U+q F A A A A V+W+X+;.;.;.;.Y+Z+`+ @}+}+}+.@# # ",
"0 |+G+b b b J e e +@@@#@$@;.;.;.;.v+%@&@7+k k k l *@=@-@;@>@;.;.;.,@'@)@!@F A A A ~@{@]@^@/@;.;.;.;.(@_@:@}+}+<@[@}@# # ",
"0 a b b b J |@1@2@3@4@;.;.;.;.;.5@6@7@8@k k k 9@0@a@b@;.;.;.;.;.4+c@d@e@f@A A g@h@i@j@/@;.;.;.;.k@l@m@n@o@}+<@p@[@}@# # ",
"G+b b b J q@r@s@t@u@;.;.;.;.v@w@x@y@z@A@k B@C@D@E@F@;.;.;.;.o+G@H@I@J@K@A L@M@N@O@P@;.;.;.;.,@L+Q@R@S@:@}+}+p@[@[@}@# # ",
"b b b T@U@V@;.;.;.;.;.a+W@X@Y@Z@`@ #k .#+#@#;.;.;.;.;.o+##$#%#&#*#=#F -#;#>#;.;.;.;.;.,#'#)#!#~#{#]#}+}+<@[@[@[@[@^## # ",
"b b /#(#;.;.;.;.;.,@_#:#<#[#}#|#7+k 1#2#;.;.;.;.;.,@3#4#5#6#7#8#q F ~@9#P@;.;.;.;.{.0#a#b#c#d#e#f#}+}+<@p@[@[@[@g#h## # ",
"b J i#j#;.;.;.,#k#l#m#n#o#p#i 7+k k q#r#;.;.;.,@s#t#u#v#w#x#q q F A y#z#;.;.;.;.'#A#B#C#D#E#F#}+}+}+<@p@[@[@[@g#G#h## # ",
"J H#I#>@J#K#L#M#N#O#P#;+Q#i 7+k k R#S#T#,@U#V#W#X#Y#Z#`# $q q F A .$+$@${.#$$$%$&$*$=$-$;$f#}+}+}+<@[@[@[@[@g#G#G#h## # ",
"e >$,$'$)$!$~${$]$^$i i i 7+k k k /$($K#_$:$<$[$}$|$q q q q F A A 1$2$3$4$5$6$7$8$9$f.f.f#}+}+}+<@p@[@[@[@g#G#G#G#h## # ",
"0$a$b$c$d$e$f$g t i i i 7+k k k g$h$i$j$k$l$m$n$o$p q q q F A A A p$q$r$s$t$u$v$f.f.f.f#}+}+}+<@p@[@[@[@g#G#G#G#G#w$# # ",
"e x$y$z$A$B$w i i i i 7+k k k l m C$D$E$F$n$o x q q q q F A A A A G$H$I$J$K$[.f.f.f.f#}+}+}+<@[@[@[@[@g#G#G#G#G#L$M$# # ",
"e N$g g g w i i i i 7+k k k l m m m O$o o o o$q q q q F A A A A P$H H H H [.f.f.f.f#}+}+}+<@[@[@[@[@g#G#G#G#Q$L$R$M$# # ",
"f g g g w t i i i 7+k k k O+m m m O$E o o o$q q q q F A A A A P$H H H H [.f.f.f.f#}+}+}+<@p@[@[@[@g#G#G#G#G#L$R$S$T$# # ",
"  g g w i i i i 7+k k k l m m m m o o o o$q q q q F A A A A P$H H H H [.f.f.f.f#}+}+}+<@[@[@[@[@g#G#G#G#G#L$R$R$U$# # # ",
"    V$i i i i 7+k k k O+m m m O$o o o o$q q q q F A A A A P$H H H H [.f.f.f.f#}+}+}+<@[@[@[@[@g#G#G#G#Q$L$R$R$W$X$# # # ",
"      i i i 7+k k k O+m m m O$o o o o$q q q q F A A A A P$H H H H [.f.f.f.f#}+}+}+Y$p@[@[@[@g#G#G#G#Q$L$R$R$Z$`$# # #   ",
"         %r+k k k O+m m m m o o o o$q q q q F A A A A P$H H H H [.f.f.f.f#}+}+}+<@[@[@[@[@g#G#G#G#G#L$R$.%+%@%# # # #   ",
"          #%$%$%%%&%&%&%&%*%=%=%-%;%;%;%;%>%,%,%,%,%'%)%)%)%)%!%~%~%~%{%]%]%]%]%^%^%^%^%/%(%(%(%(%_%_%_%:%# # # #       ",
"            # # # # # # # # # # # # # # # # # # # # # # # # # # # # # # # # # # # # # # # # # # # # # # # # # # #       ",
"                # # # # # # # # # # # # # # # # # # # # # # # # # # # # # # # # # # # # # # # # # # # # # # #           "};
