/* XPM */
static char *plotwin[]={
"60 48 141 2",
"Qt c None",
".e c #000000",
".# c #666699",
".a c #676798",
".c c #686897",
".f c #6f6f90",
".g c #7c7cae",
".h c #7d7dae",
".i c #7e7eae",
".j c #7f7faf",
".d c #808080",
".k c #8181b0",
".l c #8282b1",
".m c #8383b1",
".n c #8484b1",
".o c #8585b2",
".p c #8686b3",
".q c #8787b3",
".r c #8888b4",
".s c #8989b4",
".t c #8a8ab4",
"#T c #8b8b8c",
".z c #8b8ba6",
".u c #8b8bb5",
"#1 c #8d8d8e",
".v c #8d8db6",
".w c #8e8eb7",
".x c #8f8fb7",
".y c #9090b7",
"#W c #929294",
"ak c #98989a",
"#O c #9d9d9f",
".A c #a1a1cf",
".B c #a3a3d1",
"#2 c #a4a4b1",
".C c #a4a4d1",
"#. c #a6a6d2",
".D c #a8a8d3",
".E c #aaaad4",
".F c #acacd5",
".5 c #adadd5",
".G c #afafd7",
".H c #b0b0d7",
".I c #b1b1d8",
"#c c #b2b2d8",
"#3 c #b3b3c7",
".J c #b4b4d9",
"#4 c #b5b5c7",
"#v c #b5b5d9",
"#5 c #b6b6c8",
".2 c #b6b6da",
".K c #b7b7da",
"#t c #b7b7db",
"#6 c #b8b8c9",
"#7 c #b8b8ca",
".L c #b8b8db",
".1 c #b9b9c9",
"#8 c #b9b9ca",
".M c #b9b9db",
"#i c #b9b9dc",
".4 c #babac9",
"#9 c #bbbbcb",
".N c #bbbbdd",
".9 c #bcbcca",
".O c #bcbcdd",
"a. c #bdbdcc",
"#b c #bebecb",
"a# c #bebecc",
"aa c #bebecd",
".P c #bebede",
"#h c #bfbfcb",
"#z c #bfbfde",
"#k c #c0c0cc",
".Q c #c0c0df",
"ab c #c1c1ce",
".6 c #c1c1df",
"#Q c #c1c1e0",
"#m c #c2c2cd",
"ac c #c2c2cf",
"#p c #c3c3cd",
"#X c #c3c3df",
".R c #c3c3e0",
".3 c #c3c3e1",
"ad c #c4c4cf",
".S c #c4c4e1",
"#r c #c5c5ce",
"#Y c #c5c5e0",
".T c #c5c5e2",
"ae c #c6c6d0",
"#o c #c6c6e2",
"#u c #c7c7cf",
"#y c #c7c7d0",
"af c #c7c7d1",
"#C c #c8c8d0",
".U c #c8c8e3",
"#H c #cacad1",
"ag c #cacad2",
".V c #cacae4",
"ah c #cbcbd3",
"#R c #cbcbe4",
"#J c #ccccd2",
"ai c #ccccd4",
".W c #cccce5",
"#L c #cdcdd2",
"#D c #cdcde5",
".X c #cecee6",
"#d c #cecee7",
"aj c #cfcfd5",
".Y c #cfcfe7",
".7 c #d0d0e7",
"#E c #d0d0e8",
".Z c #d2d2e9",
".0 c #d3d3e9",
".8 c #d4d4ea",
"#e c #d5d5ea",
"#V c #d7d7dd",
"#a c #d7d7eb",
"#S c #d8d8df",
"#f c #d8d8eb",
"#F c #d8d8ec",
"#j c #dadaed",
"#g c #dbdbed",
"#0 c #dddde3",
"#l c #ddddee",
"#P c #dedee5",
"#n c #dfdfef",
"#q c #e1e1f0",
"#A c #e2e2f0",
"#s c #e3e3f1",
"#w c #e4e4f1",
"#U c #e4e4f2",
"#B c #e6e6f3",
"#x c #e7e7f3",
"#G c #e9e9f4",
"#N c #eaeaf1",
"#Z c #ebebf3",
"#I c #ebebf5",
"#K c #eeeef7",
"#M c #efeff7",
"## c #ff0000",
".b c #ffff00",
"QtQtQtQtQt.#.#.#.#.#.#.#.#.#.#.#.#.#.#.#.#.#.#.#.#.#.#.#.#.#.#.#.#.#.#.#.#.#.#.#.#.#.#.#.#.#.#.#.#.#.#.#QtQtQtQtQtQtQtQt",
"QtQtQt.#.#.#.#.#.#.#.#.#.#.#.#.#.#.#.#.#.#.#.#.#.#.#.#.#.#.#.#.#.#.#.#.#.#.#.#.#.#.#.#.#.#.#.#.#.#.#.#.#.#.#QtQtQtQtQtQt",
"QtQtQt.#.#.#.#.#.#.#.#.#.#.#.#.#.#.#.#.#.#.#.#.#.#.#.#.#.#.#.#.#.#.#.#.#.#.#.#.#.#.#.#.#.#.#.#.#.#.#.#.#.#.#.#QtQtQtQtQt",
"Qt.#.#.#.#.#.#.#.#.#.#.#.#.#.#.#.#.#.#.#.#.#.#.#.#.#.#.#.#.#.#.#.#.#.#.#.#.#.#.#.#.#.#.#.#.#.#.#.#.#.#.#.#.#.#.#QtQtQtQt",
"Qt.#.#.#.#.#.#.#.#.#.#.#.#.#.#.#.#.#.#.#.#.#.#.#.#.#.#.#.#.#.#.#.#.#.#.#.#.#.#.#.#.#.#.#.#.#.#.#.#.#.#.#.#.#.#.#.aQtQtQt",
"Qt.#.#.#.b.b.#.#.#.#.#.#.#.#.#.#.#.#.#.#.#.#.#.#.#.#.#.#.#.#.#.#.#.#.#.#.#.#.#.#.#.#.#.#.#.#.#.#.#.#.#.#.#.#.#.#.c.dQtQt",
".#.#.#.#.b.b.e.#.#.#.#.#.#.#.#.#.#.#.#.#.#.#.#.#.#.#.#.#.#.#.#.#.#.#.#.#.#.#.#.#.#.#.#.#.#.#.#.#.#.#.#.#.#.#.#.#.#.f.dQt",
".g.h.i.b.b.b.b.j.j.j.k.k.k.k.k.l.l.l.l.m.n.n.n.n.o.o.o.o.p.q.q.q.q.r.r.r.r.s.t.t.t.t.u.u.u.u.v.v.v.v.v.w.w.w.x.y.y.z.dQt",
".A.B.C.b.b.b.b.e.D.E.F.F.F.F.G.H.H.H.I.J.J.J.J.K.L.L.L.M.N.O.O.O.P.Q.Q.Q.Q.R.S.S.S.T.U.U.U.V.W.W.W.W.X.Y.Y.Y.Z.0.0.1.d.d",
".C.C.b.b.b.b.b.b.e.F.F.F.F.G.H.H.H.I.J.J.J.J.2.L.L.L.M.O.O.O.O.P.Q.Q.Q.Q.3.S.S.S.T.U.U.U.V.W.W.W.W.X.Y.Y.Y.Z.0.0.0.4.d.d",
".C.C.b.b.b.b.b.b.e.F.F.5.G.H.H.H.I.J.J.J.J.K.L.L.L.M.O.O.O.O.P.Q.Q.Q.6.R.S.S.S.T.U.U.U.V.W.W.W.W.X.Y.Y.7.Z.0.0.0.8.9.d.d",
".C.C#..D.b.b.e.e.e.F.5.G.H.H.H.I.J.J.J.J.K.L.L.L.M.N.O.O.O.P.Q.Q.Q.Q.R.S.S.S.T.U.U.U.V.W.W.W.W.X.Y##.7.Z.0.0.0.8#a.9.d.d",
".C#..D.D.b.b.e.F.F.F.G.H.H.H.I.J.J.J.J.K.L.L.L.M.O.O.O.O.P.Q.Q.Q.Q.3.S.S.S.T.U.U.U.V.W.W.W.W.X.Y####.Z.0.0.0.8#a#a.9.d.d",
"#..D.D.D.b.b.e.F.5.G.H.H.H.I.J.J.J.J.K.L.L.L.M.O.O.O.O.P.Q.Q.Q.6.3.S.S.S.T.U.U.U.V.W.W.W.W.X.Y.Y####.0.0.0.8#a#a#a.9.d.d",
".D.D.D.E.b.b.e.5.G.H.H.H.I.J.J.J.J.K.L.L.L.M.N.O.O.O.P.Q.Q.Q.Q.R.S.S.S.T.U.U.U.V.W.W.W.W.X.Y.Y####.0.0.0.8#a#a#a#a.9.d.d",
".D.D.E.F.b.b.e.G.H.H.H.I.J.J.J.J.K.L.L.L.M.N.O.O.O.P.Q.Q.Q.Q.3.S.S.S.T.U.U.U.V.W.W.W.W.X.Y.Y.Y####.0.0.8#a#a#a#a#a#b.d.d",
".D.E.F.F.b.b.e.H.H.H#c.J.J.J.J.K.L.L.L.M.O.O.O.O.P.Q.Q.Q.6.3.S.S.S.T.U.U.U.V.W.W.W.W#d.Y.Y.7####.0.0#e#a#a#a#a#f#g#h.d.d",
".E.F.F.F.b.b.e.H.H.I.J.J.J.J.K.L.L.L#i.O.O.O.O.P.Q.Q.Q.6.3.S.S.S.T.U.U.U.V.W.W.W.W.X.Y.Y.7.Z####.0.8#a#a#a#a#f#j#g#h.d.d",
".F.F.F.F.b.b.e.H#c.J.J.J.J.K.L.L.L.M.N.O.O.O.P.Q.Q.Q.Q.3.S.S.S.T.U.U.U.V.W.W.W.W#d.Y.Y.Y.Z####.0#e#a#a#a#a#a#j#g#g#h.d.d",
".F.F.5.H.b.b.e#c.J.J.J.J.K.L.L.L.M.O.O.O.O.P.Q.Q.Q.Q.3.S.S.S.T.U.U.U.V.W.W.W.W#d.Y.Y.7.0.0#####e#a#a#a#a#f#g#g#g#g#k.d.d",
".F.5.G.H.b.b.e.J.J.J.J.K.L.L.L#i.O.O.O.O.P.Q.Q.Q.6.3.S.S.S.T.U.U.U.V.W.W.W.W.X.Y.Y.7.Z.0#####e#a#a#a#a#f#j#g#g#g#l#m.d.d",
".5.G.H.H.b.b.e.J.J.J.K.L.L.L#i.N.O.O.O.P.Q.Q.Q.Q.3.S.S.S.T.U###############################e#a#a#a#a#f#j#g#g#g#l#n#m.d.d",
".H.H.H.H.b.b.e.J.J.K.L.L.L.M.O.O.O.O.P.Q.Q.Q.Q.3.S.S.S#o.U#################################a#a#a#a#a#g#g#g#g#l#n#n#m.d.d",
".H.H.H#c.b.b.e.J.K.L.L.L#i.O.O.O.O.P.Q.Q.Q.6.3.S.S.S.T.U####.V.W.W.W.W#d.Y.Y.7.Z.0.0.0#e#a#a#a#a#f#j#g#g#g#l#n#n#n#p.d.d",
".H.H#c.J.b.b.e.K.L.L.L#i.O.O.O.O.P.Q.Q.Q.6.3.S.S.S#o.U####.V.W.W.W.W#d.Y.Y.7.Z.0.0.0#e#a#a#a#a#f#j#g#g#g#l#n#n#n#q#r.d.d",
".H#c.J.J.b.b.e.L.L.L#i.O.O.O.O.P##.Q.Q.Q.S.S.S.S#o.U####.V.W.W.W.W#d.Y.Y.7.0.0.0.0#e#a#a#a#a#f#g#g#g#g#l#n#n#n#q#s#r.d.d",
"#c.J.J.J.b.b.e.L.L#i.O.O.O.O.P####.Q.6.3.S.S.S#o.U####.V.W.W.W.W#d.Y.Y.7.0.0.0.0#e#a#a#a#a#f#g#g#g#g#l#n#n#n#q#s#s#r.d.d",
".J.J.J.J.b.b.e.L#i.O.O.O.O.P########.3.S.S.S#o.U####.V.W.W.W.W#d.Y.Y.7.Z.0.0.0#e#a#a#a#a#f#j#g#g#g#l#n#n#n#q#s#s#s#r.d.d",
".J.J.J#t.b.b.e#i.O.O.O.O.P.Q##.Q####.S.S.S#o.U####.V.W.W.W.W.Y.Y.Y.7.0.0.0.0#e#a#a#a#a#f#g#g#g#g#l#n#n#n#q#s#s#s#s#u.d.d",
".J#v#t.L.b.b.e.O.O.O.O.P.Q##.Q.6.S####.S#o.U####.V.W.W.W.W.Y.Y.Y.7.0.0.0.0#e#a#a#a#a#f#g#g#g#g#l#n#n#n#q#s#s#s#w#x#y.d.d",
".J.K.L.L.b.b.e.O.O.O#z.Q####.6.3.S#####o.U####.V.W.W.W.W#d.Y.Y.7.Z.0.0.0#e#a#a#a#a#f#j#g#g#g#l#n#n#n#A#s#s#s#w#B#x#y.d.d",
"#t.L.L.L.b.b.e.O.O.P.Q.Q##.Q.3.S.S.S########.V.W.W.W.W.Y.Y.Y.7.Z.0.0.0#e#a#a#a#a#f#j#g#g#g#l#n#n#n#q#s#s#s#s#B#x#x#y.d.d",
".L.L.L#i.b.b.e.O#z.Q.Q##.6.S.S.S.S#o########.W.W.W.W.Y.Y.Y.7.0.0.0.0#e#a#a#a#a#f#g#g#g#g#l#n#n#n#A#s#s#s#w#x#x#x#x#C.d.d",
".L.L#i.O.b.b.e#z.Q.Q####.3.S.S.S#o.U.U####.W.W.W#D#d.Y.Y#E.0.0.0.0#e#a#a#a#a#F#g#g#g#g#l#n#n#n#A#s#s#s#w#B#x#x#x#G#H.d.d",
".L#i.O.O.b.b.e.Q.Q.Q##.3.S.S.S#o.U.U.U.V.W.W.W.W#d.Y.Y.7.Z.0.0.0#e#a#a#a#a#f#j#g#g#g#l#n#n#n#A#s#s#s#w#B#x#x#x#G#I#H.d.d",
"#i.O.O.O.b.b.e.Q.Q####.S.S.S#o.U.U.U.V.W.W.W.W.Y.Y.Y.7.0.0.0.0#e#a#a#a#a#f#g#g#g#g#l#n#n#n#A#s#s#s#w#x#x#x#x#G#I#I#H.d.d",
".O.O.O.O.b.b.e.Q####.S.S.S#o.U.U.U.V.W.W.W#D#d.Y.Y#E.0.0.0.0#e#a#a#a#a#F#g#g#g#g#l#n#n#n#A#s#s#s#w#B#x#x#x#G#I#I#I#H.d.d",
".O.O.O#z.b.b.e.6##.S.S.S#o.U.U.U.V.W.W.W.W#d.Y.Y#E.Z.0.0.0#e#a#a#a#a#F#j#g#g#g#l#n#n#n#A#s#s#s#w#B.b.b#x#G#I#I#I#I#J.d.d",
".O.O#z.Q.b.b.e####.S.S#o.U.U.U.V.W.W.W.W.Y.Y.Y.7.0.0.0.0#e#a#a#a#a#f#g#g#g#g#l#n#n#n#A#s#s#s#w#x#x.b.b.b.b#I#I#I#K#L.d.d",
".O#z.b.b.b.b.b.b.b.b.b.b.b.b.b.b.b.b.b.b.b.b.b.b.b.b.b.b.b.b.b.b.b.b.b.b.b.b.b.b.b.b.b.b.b.b.b.b.b.b.b.b.b.b.b#K#M#L.d.d",
".P.Q.b.b.b.b.b.b.b.b.b.b.b.b.b.b.b.b.b.b.b.b.b.b.b.b.b.b.b.b.b.b.b.b.b.b.b.b.b.b.b.b.b.b.b.b.b.b.b.b.b.b.b.b.b#M#N#O.d.d",
"Qt.Q.Q.e.b.b.e.e.e.e.e.e.e.e.e.e.e.e.e.e.e.e.e.e.e.e.e.e.e.e.e.e.e.e.e.e.e.e.e.e.e.e.e.e.e.e.e.e.e.b.b.b.b.e.e#M#P.d.d.d",
"QtQt#Q.S.b.b.e#o.U.U.U#R.W.W.W#D.Y.Y.Y#E.0.0.0.0#e#a#a#a#a#F#g#g#g#g#l#n#n#n#A#s#s#s#w#x#x#x#x#G.e.b.b.e.e#M#M#S#T.d.d.d",
"QtQtQt.S.S.S#o.U.U.U#R.W.W.W#D.Y.Y.Y#E.0.0.0.0#e#a#a#a#a#F#g#g#g#g#l#n#n#n#A#s#s#s#U#B#x#x#x#G#I.e.e.e#K#M#M#V#W.d.d.dQt",
"QtQtQtQt#X#Y.U.U.U#R.W.W.W.W.Y.Y.Y#E.0.0.0.0#e#a#a#a#a#F#g#g#g#g#l#n#n#n#A#s#s#s#w#x#x#x#x#G#I#I#I#I#K#M#Z#0#1.d.d.d.dQt",
"QtQtQtQtQt#2#3#3#4#5#5#5#5#6#7#7#8#9#9#9#9a.a#a#a#a#aaababababacadadadaeafafafafagagagagahaiaiaiaiajajajak.d.d.d.dQtQtQt",
"QtQtQtQtQtQt.d.d.d.d.d.d.d.d.d.d.d.d.d.d.d.d.d.d.d.d.d.d.d.d.d.d.d.d.d.d.d.d.d.d.d.d.d.d.d.d.d.d.d.d.d.d.d.d.d.d.dQtQtQt",
"QtQtQtQtQtQtQtQt.d.d.d.d.d.d.d.d.d.d.d.d.d.d.d.d.d.d.d.d.d.d.d.d.d.d.d.d.d.d.d.d.d.d.d.d.d.d.d.d.d.d.d.d.d.d.dQtQtQtQtQt"};
