/* XPM */
static char *pycon16[] = {
/* columns rows colors chars-per-pixel */
"16 16 196 2",
"   c black",
".  c #0DA70DA7147B",
"X  c #112211221122",
"o  c #194719471FB3",
"O  c #24692469369D",
"+  c #2B752B75321B",
"@  c #37BA37BA3B91",
"#  c #4B184B1870A3",
"$  c #6A646A646A75",
"%  c #734B734B7362",
"&  c #5B055B058888",
"*  c #61D961D992C5",
"=  c #64316431961E",
"-  c #666666669999",
";  c #73187318815F",
":  c #A53854BB3D6B",
">  c #B7615258328D",
",  c #BEF75437317B",
"<  c #9F10546B40B8",
"1  c #91195C4B52FD",
"2  c #98D16D7E64F3",
"3  c #94EF71166F4D",
"4  c #A80E710A66BC",
"5  c #AADD790C6FCA",
"6  c #C2065C233BCF",
"7  c #D350575D2E78",
"8  c #E0515AB02E84",
"9  c #EF49608230FE",
"0  c #F398617830B3",
"q  c #F46062E032A4",
"w  c #F33768B83BB9",
"e  c #FC0165DD3406",
"r  c #FCDF664F345C",
"t  c #FF9866333322",
"y  c #FFD566553333",
"u  c #FF7666C13401",
"i  c #FE2B67D93636",
"p  c #FBCD692A3944",
"a  c #FCAC69CA3A6D",
"s  c #FB556A9D3B41",
"d  c #DD3D70C65449",
"f  c #E9B66E464A2D",
"g  c #F0EA7C875D2F",
"h  c #F6DF6CC24136",
"j  c #F7B86D624225",
"k  c #F1EB72004CA2",
"l  c #F56173AC4D6F",
"z  c #8D207BAE87D1",
"x  c #94CD7EC88372",
"c  c #D32D8A017E23",
"v  c #DACF85B872BC",
"b  c #E87685356974",
"n  c #F0D9835B6644",
"m  c #EA94925F7D66",
"M  c #F1E08B96701A",
"N  c #8CA38CA392C0",
"B  c #97868F22A08F",
"V  c #9DCB8EC19C74",
"C  c #92ED92ED98DD",
"Z  c #93CC93CC996B",
"A  c #948E948E99BB",
"S  c #953F953F99F4",
"D  c #960D960D9A89",
"F  c #986A986A9A4A",
"G  c #96CF96CF9AD9",
"H  c #97D697D69B4B",
"J  c #98F998F99BE0",
"K  c #99EF99EF9C9C",
"L  c #821B821BB319",
"P  c #83948394B396",
"I  c #85078507B46A",
"U  c #86FE86FEB57C",
"Y  c #88998899B671",
"T  c #8A578A57B706",
"R  c #8BD08BD0B7BD",
"E  c #8D328D32B896",
"W  c #8EBC8EBCB958",
"Q  c #90129012BA1A",
"!  c #9EC69EC6A0DF",
"~  c #91D691D6BAB4",
"^  c #934E934EBB99",
"/  c #953A953ABC8E",
"(  c #964C964CBD3A",
")  c #97F297F2BE24",
"_  c #A64B8F8F8FE5",
"`  c #B4868D4E9494",
"'  c #A162A162A981",
"]  c #A208A208A9CB",
"[  c #A348A348AA54",
"{  c #A421A421AACC",
"}  c #A555A555AB66",
"|  c #A718A718AC3D",
" . c #A847A847AD02",
".. c #A9A9A9A9AD9C",
"X. c #AA71AA71ADFD",
"o. c #B638A179A8E7",
"O. c #B346AF42BAD7",
"+. c #BFFEA94EB98B",
"@. c #AF0FAF0FCB9D",
"#. c #A482A482D1CB",
"$. c #A724A724D305",
"%. c #A7C4A7C4D35B",
"&. c #A9A3A9A3D445",
"*. c #AA5AAA5AD4A1",
"=. c #AB33AB33D513",
"-. c #AD4CAD4CD61A",
";. c #AE25AE25D697",
":. c #AF43AF43D737",
">. c #B077B077D7BA",
",. c #BC4AAAD8C676",
"<. c #BC9FAF26CAE1",
"1. c #B908AF15CD5B",
"2. c #B1C2B010D630",
"3. c #BC11B106CB9D",
"4. c #B178B178D84F",
"5. c #B207B207D8A5",
"6. c #B2F6B2F6D90B",
"7. c #B53FB53FDA1A",
"8. c #B60BB60BDA6D",
"9. c #B840B840DB91",
"0. c #B941B70CD91D",
"q. c #BCC2BC4FD103",
"w. c #B8C9B8C9DBCA",
"e. c #B90EB90EDC03",
"r. c #BB26BB26DD0D",
"t. c #BC6FBC6FDDAD",
"y. c #BDE5BDE5DA73",
"u. c #BE3EBE3EDE9F",
"i. c #BF5EBF5EDF2E",
"p. c #C009C009DF84",
"a. c #D90B8A8482BB",
"s. c #D3D39AC294AB",
"d. c #D3A09CA2A045",
"f. c #D83E9E939E98",
"g. c #CE67A1BEAB78",
"h. c #C8EAA875B189",
"j. c #CFCFABB1B5C0",
"k. c #D5E0AB1CA9C6",
"l. c #D9B1A64BA600",
"z. c #D53BAE80B111",
"x. c #EE43988784B2",
"c. c #E37C9F0B949F",
"v. c #E5B79FF595CE",
"b. c #C542ADF7C199",
"n. c #CA4CB61CC50E",
"m. c #C0EEC042DF0C",
"M. c #CA36C0BAD720",
"N. c #D5CABDDFCAD5",
"B. c #C7C7C7C7CD05",
"V. c #C72DC68DD2E9",
"C. c #C160C160DD15",
"Z. c #C225C225E090",
"A. c #CC87CC54E0C3",
"S. c #C365C365E11F",
"D. c #C564C564E250",
"F. c #C682C682E2D1",
"G. c #C766C766E332",
"H. c #C806C806E399",
"J. c #C93AC74FE0FD",
"K. c #C932C932E422",
"L. c #CA3BCA3BE491",
"P. c #CC21CC21E590",
"I. c #CD32CD32E61D",
"U. c #CDD3CD60E613",
"Y. c #CF5ACF5AE77E",
"T. c #D060D060E82F",
"R. c #D535D40CE8D1",
"E. c #D810D7B5E4BC",
"W. c #D832D5B8E89E",
"Q. c #D2AAD2AAE960",
"!. c #D352D352E9BE",
"~. c #D3B6D3B6E9FA",
"^. c #D446D446EA25",
"/. c #D5CAD5CAEAFB",
"(. c #D69BD68EEB42",
"). c #D743D743EBA1",
"_. c #D843D843EC16",
"`. c #DB0DD603E685",
"'. c #DC14DA4BE8D1",
"]. c #D92ED92EECB9",
"[. c #D9FBD9FBED1F",
"{. c #DB19DB19ED97",
"}. c #DC6FDC6FEE37",
"|. c #DD60DD60EEAF",
" X c #E024E024F000",
".X c #E13BE13BF06A",
"XX c #E3C6E3C6F1C9",
"oX c #E45BE45BF20E",
"OX c #E548E548F28E",
"+X c #E5F0E5F0F2D5",
"@X c #E761E761F3B4",
"#X c #E87BE87BF446",
"$X c #EA50EA50F527",
"%X c #EB42EB42F5A2",
"&X c #ED7BED7BF69B",
"*X c None",
/* pixels */
". & - - - - - - - - - - - * O *X",
"# - - - - = - - - - - - - - = o ",
"L P I I R R R E W Q ~ ^ ~ ) ) ; ",
"#.%.=.>.6.7.w.u.u.S.F.L.P.~.~.' ",
"#.=.>.6.7.w.u.u.S.F.L.P.P.^.).' ",
"=.=.>.7.w.r.u.p.F.L.P.P.^.^.].{ ",
"=.>.a.<.r.u.f.j.F.L.N.c.R.].].{ ",
"6.,.a l b.p.g p l.P.v.u m `.|.| ",
"6.1.d u h +.c e i s.k.w i b '.| ",
"7.r.1.f 0 V A.v u 4 ).k.i 6 E.| ",
"0.d.k 8 1 g.g 0 : o.x.a , _ +X .",
"g.9 < B M.h , N P.M 7 2 V.+X$X .",
"` z y.F.n.3 q.^.W.5 O..X+X#X%X .",
"@.S.F.L.P.T.^.).].|..X+X@X$X&X! ",
"+ p.L.P.Y.~.^.].|. X.X@X$X&XB.$ ",
"*X@ N Z Z D D D D F K K K K % X "
};
